<?xml version="1.0" encoding="UTF-8"?>
<svg version="1.1" xmlns="http://www.w3.org/2000/svg" width="274" height="100">
<path d="M0 0 C2.4375 0.75 2.4375 0.75 4.4375 2.75 C4.75 5.6875 4.75 5.6875 4.4375 8.75 C2.91796875 10.44140625 2.91796875 10.44140625 1.4375 11.75 C2.68437592 12.71239452 3.93514969 13.66974009 5.1875 14.625 C5.88359375 15.15867187 6.5796875 15.69234375 7.296875 16.2421875 C9.28472603 17.64238914 11.23593386 18.72855265 13.4375 19.75 C13.4375 20.41 13.4375 21.07 13.4375 21.75 C15.4175 21.42 17.3975 21.09 19.4375 20.75 C20.23703138 24.03696233 20.53408936 25.46023192 19.4375 28.75 C18.7775 28.75 18.1175 28.75 17.4375 28.75 C17.9325 30.73 17.9325 30.73 18.4375 32.75 C19.118125 32.523125 19.79875 32.29625 20.5 32.0625 C24.63294794 31.62282469 26.84172157 32.72328852 30.4375 34.75 C32.96819019 37.4072247 34.30869805 39.25957745 34.62890625 42.96484375 C34.40731057 47.00057116 33.70205774 49.3531634 31.4375 52.75 C27.47105995 55.39429337 24.18645393 56.16877901 19.4375 55.75 C15.61089067 53.97842161 13.88182099 52.39498209 11.5 48.9375 C10.2095543 45.06616291 10.47162873 42.68778286 11.4375 38.75 C12.0975 37.76 12.7575 36.77 13.4375 35.75 C13.1075 34.76 12.7775 33.77 12.4375 32.75 C10.7875 33.41 9.1375 34.07 7.4375 34.75 C7.34662109 35.70712891 7.34662109 35.70712891 7.25390625 36.68359375 C7.17011719 37.50988281 7.08632812 38.33617187 7 39.1875 C6.91878906 40.01121094 6.83757812 40.83492187 6.75390625 41.68359375 C6.4375 43.75 6.4375 43.75 5.4375 44.75 C3.08436445 44.82271741 0.72916332 44.83370868 -1.625 44.8125 C-2.91535156 44.80347656 -4.20570312 44.79445312 -5.53515625 44.78515625 C-6.53417969 44.77355469 -7.53320312 44.76195312 -8.5625 44.75 C-8.68496094 45.51828125 -8.80742188 46.2865625 -8.93359375 47.078125 C-9.84027329 50.93010518 -11.44351866 52.36099301 -14.5625 54.75 C-18.65896653 56.13234673 -21.71394042 56.02741371 -25.8125 54.6875 C-29.0510825 52.40577142 -30.68221037 50.22130393 -32.5625 46.75 C-32.5625 45.76 -32.5625 44.77 -32.5625 43.75 C-33.5525 43.75 -34.5425 43.75 -35.5625 43.75 C-35.5625 42.76 -35.5625 41.77 -35.5625 40.75 C-34.5725 40.75 -33.5825 40.75 -32.5625 40.75 C-32.830625 40.21375 -33.09875 39.6775 -33.375 39.125 C-33.5625 36.75 -33.5625 36.75 -31.375 33.625 C-29.26890621 31.28554402 -27.36784455 30.15267228 -24.5625 28.75 C-24.129375 27.904375 -23.69625 27.05875 -23.25 26.1875 C-22.693125 25.383125 -22.13625 24.57875 -21.5625 23.75 C-20.45132813 23.68296875 -19.34015625 23.6159375 -18.1953125 23.546875 C-14.28719272 23.12669908 -14.28719272 23.12669908 -12.41796875 19.58203125 C-11.83410202 18.25409852 -11.278799 16.91330617 -10.75 15.5625 C-10.46447266 14.90185547 -10.17894531 14.24121094 -9.88476562 13.56054688 C-8.5948604 10.52882066 -7.50113847 7.54601437 -6.55078125 4.38671875 C-5.2214196 0.8400029 -3.85077667 -0.37568553 0 0 Z M-1.5625 16.75 C-2.2225 18.73 -2.8825 20.71 -3.5625 22.75 C-0.74765955 24.15742022 1.00686113 23.41652164 4.0625 22.8125 C5.56683594 22.52052734 5.56683594 22.52052734 7.1015625 22.22265625 C7.87242187 22.06667969 8.64328125 21.91070312 9.4375 21.75 C4.32683209 18.1515804 4.32683209 18.1515804 -1.5625 16.75 Z M-23.5625 36.75 C-25.26782323 38.69009522 -25.26782323 38.69009522 -26.5625 40.75 C-24.39375748 40.24396008 -22.56282373 39.75016187 -20.5625 38.75 C-20.5625 38.09 -20.5625 37.43 -20.5625 36.75 C-21.5525 36.75 -22.5425 36.75 -23.5625 36.75 Z M21.4375 36.75 C21.7675 37.74 22.0975 38.73 22.4375 39.75 C23.4275 40.08 24.4175 40.41 25.4375 40.75 C25.4375 42.73 25.4375 44.71 25.4375 46.75 C23.0625 47.375 23.0625 47.375 20.4375 47.75 C18.4375 45.75 18.4375 45.75 18.3125 42.625 C18.35375 41.67625 18.395 40.7275 18.4375 39.75 C17.7775 39.75 17.1175 39.75 16.4375 39.75 C16.10026794 43.78022473 16.10026794 43.78022473 16.4375 47.75 C19.05086032 50.21402545 20.48346551 50.77271511 24.0625 50.6875 C27.04221331 49.51129738 28.03434695 48.63425905 29.4375 45.75 C29.36445236 42.17066548 29.12051127 40.43301127 26.5625 37.875 C24.39634321 36.51605614 24.39634321 36.51605614 21.4375 36.75 Z M-16.5625 37.75 C-16.5625 39.07 -16.5625 40.39 -16.5625 41.75 C-15.5725 41.42 -14.5825 41.09 -13.5625 40.75 C-14.5525 39.76 -15.5425 38.77 -16.5625 37.75 Z M-27.5625 43.75 C-25.80795615 46.93234105 -25.80795615 46.93234105 -23.5625 49.75 C-20.68885209 50.16746608 -20.68885209 50.16746608 -17.5625 49.75 C-15.18530307 47.87498069 -15.18530307 47.87498069 -13.5625 45.75 C-14.5525 45.75 -15.5425 45.75 -16.5625 45.75 C-17.2225 46.41 -17.8825 47.07 -18.5625 47.75 C-21.0625 47.5625 -21.0625 47.5625 -23.5625 46.75 C-24.2225 45.76 -24.8825 44.77 -25.5625 43.75 C-26.2225 43.75 -26.8825 43.75 -27.5625 43.75 Z " fill="#86BD3C" transform="translate(125.5625,34.25)"/>
<path d="M0 0 C1.20269531 -0.02578125 2.40539062 -0.0515625 3.64453125 -0.078125 C9.04953241 0.42244843 12.95532515 2.40110972 16.4375 6.5625 C16.91703125 7.11550781 17.3965625 7.66851562 17.890625 8.23828125 C23.48931896 16.9230023 22.50855835 30.93034248 20.46484375 40.70703125 C18.39688838 46.29134798 15.77830357 49.48162577 10.37109375 52.14453125 C3.20405981 55.21611723 -3.44840465 55.00563319 -10.69921875 52.36328125 C-16.03748971 49.55106827 -18.8794406 44.80337004 -20.8125 39.25 C-21.2445939 35.34154731 -21.18273048 31.4300883 -21.1875 27.5 C-21.21199219 26.45328125 -21.23648438 25.4065625 -21.26171875 24.328125 C-21.28689079 17.61558094 -20.57964592 11.95203721 -16.8125 6.25 C-11.68411163 1.3736588 -6.92830696 0.08854066 0 0 Z M-5.8125 13.25 C-8.27688898 17.78412491 -8.14539005 22.22589271 -8.125 27.25 C-8.14111328 28.0440625 -8.15722656 28.838125 -8.17382812 29.65625 C-8.17772982 34.33828014 -7.85895973 37.45489688 -4.8125 41.25 C-1.97166359 42.67041821 0.04227278 42.56452272 3.1875 42.25 C6.03530619 40.01793569 7.03747666 38.70007001 8.1875 35.25 C8.31021523 32.63302629 8.37262754 30.05432239 8.375 27.4375 C8.39336914 26.38852539 8.39336914 26.38852539 8.41210938 25.31835938 C8.42447434 20.91231086 7.92934407 17.30609627 6.1875 13.25 C2.3108448 10.40711952 -1.90031989 10.51147393 -5.8125 13.25 Z " fill="#000000" transform="translate(65.8125,35.75)"/>
<path d="M0 0 C4.29 0 8.58 0 13 0 C13.33 6.6 13.66 13.2 14 20 C14.84304687 18.72382812 15.68609375 17.44765625 16.5546875 16.1328125 C17.66133637 14.46346081 18.76811389 12.79419439 19.875 11.125 C20.43058594 10.28324219 20.98617187 9.44148438 21.55859375 8.57421875 C22.09355469 7.76855469 22.62851563 6.96289062 23.1796875 6.1328125 C23.91807861 5.01737061 23.91807861 5.01737061 24.67138672 3.87939453 C26 2 26 2 28 0 C31.0390625 -0.1953125 31.0390625 -0.1953125 34.625 -0.125 C36.40777344 -0.09792969 36.40777344 -0.09792969 38.2265625 -0.0703125 C39.14179688 -0.04710937 40.05703125 -0.02390625 41 0 C40.44155172 4.05427143 39.21298806 6.54943109 36.83984375 9.86328125 C36.21142578 10.74951172 35.58300781 11.63574219 34.93554688 12.54882812 C33.94651367 13.9168457 33.94651367 13.9168457 32.9375 15.3125 C32.27427734 16.24384766 31.61105469 17.17519531 30.92773438 18.13476562 C29.29259906 20.42866049 27.64987954 22.71669874 26 25 C29.89690725 32.51954037 34.23038565 39.34588678 39.2421875 46.15234375 C41 49 41 49 41 53 C36.22830746 53.52946178 31.75529499 53.75616113 27 53 C23.93744383 50.54758558 22.67176283 47.49323577 21 44 C19.7298053 41.96560192 18.43792574 39.94458648 17.125 37.9375 C16.08235447 36.29228661 15.04033108 34.64667789 14 33 C13.97494385 33.57032959 13.9498877 34.14065918 13.92407227 34.72827148 C13.80843451 37.29826157 13.68556376 39.86785527 13.5625 42.4375 C13.50352539 43.78424805 13.50352539 43.78424805 13.44335938 45.15820312 C13.40146484 46.01220703 13.35957031 46.86621094 13.31640625 47.74609375 C13.27974854 48.53685303 13.24309082 49.3276123 13.20532227 50.14233398 C13 52 13 52 12 53 C10.16884117 53.09851171 8.33380067 53.12972629 6.5 53.125 C5.4996875 53.12757812 4.499375 53.13015625 3.46875 53.1328125 C1 53 1 53 0 52 C-0.09340434 50.37325222 -0.11745171 48.74245949 -0.11352539 47.11303711 C-0.11344986 46.07203354 -0.11337433 45.03102997 -0.11329651 43.95848083 C-0.10813522 42.8262056 -0.10297394 41.69393036 -0.09765625 40.52734375 C-0.0962413 39.37456436 -0.09482635 38.22178497 -0.09336853 37.03407288 C-0.08775005 33.33518936 -0.07519442 29.63636536 -0.0625 25.9375 C-0.05748738 23.43684983 -0.05292406 20.93619871 -0.04882812 18.43554688 C-0.03777462 12.29034149 -0.0204976 6.14518085 0 0 Z " fill="#000000" transform="translate(233,37)"/>
<path d="M0 0 C0.7425 -0.01224609 1.485 -0.02449219 2.25 -0.03710938 C6.77177483 -0.04909288 10.36558122 0.4769715 14.625 2.1875 C14.625 5.4875 14.625 8.7875 14.625 12.1875 C12.76294922 12.17009766 12.76294922 12.17009766 10.86328125 12.15234375 C9.22135568 12.14296132 7.57942847 12.1338616 5.9375 12.125 C5.12087891 12.11662109 4.30425781 12.10824219 3.46289062 12.09960938 C-0.61999084 12.08307949 -4.39151707 12.15714902 -8.375 13.1875 C-9.28124209 17.86487852 -9.58926571 22.43483949 -9.625 27.1875 C-9.645625 27.87328125 -9.66625 28.5590625 -9.6875 29.265625 C-9.72346587 33.97715446 -9.29135816 37.42149419 -6.375 41.1875 C-3.735 41.5175 -1.095 41.8475 1.625 42.1875 C1.625 36.5775 1.625 30.9675 1.625 25.1875 C5.915 25.1875 10.205 25.1875 14.625 25.1875 C14.70558764 29.47953802 14.76530584 33.77007868 14.8125 38.0625 C14.83763672 39.28582031 14.86277344 40.50914063 14.88867188 41.76953125 C14.89833984 42.93613281 14.90800781 44.10273437 14.91796875 45.3046875 C14.9336792 46.38347168 14.94938965 47.46225586 14.96557617 48.57373047 C14.79699097 49.86754639 14.79699097 49.86754639 14.625 51.1875 C8.86656742 55.02645505 0.41086127 54.79164663 -6.375 54.1875 C-11.41757536 52.99065838 -15.78104654 50.98111755 -19.375 47.1875 C-23.39542707 40.49073697 -23.99555353 34.30526449 -23.875 26.625 C-23.89046875 25.63564453 -23.9059375 24.64628906 -23.921875 23.62695312 C-23.88249943 16.20957935 -22.49363836 10.79171582 -17.59375 5.12890625 C-17.0265625 4.67386719 -16.459375 4.21882813 -15.875 3.75 C-15.3078125 3.27691406 -14.740625 2.80382813 -14.15625 2.31640625 C-9.86255113 -0.40481957 -4.92244274 0.0042289 0 0 Z " fill="#000000" transform="translate(23.375,35.8125)"/>
<path d="M0 0 C1 1 1 1 1.1328125 3.03125 C1.13023437 3.8459375 1.12765625 4.660625 1.125 5.5 C1.12886719 6.72203125 1.12886719 6.72203125 1.1328125 7.96875 C1 10 1 10 0 11 C-1.34015221 11.15582303 -2.68758903 11.25044142 -4.03515625 11.31640625 C-4.84404297 11.35830078 -5.65292969 11.40019531 -6.48632812 11.44335938 C-7.7615332 11.50233398 -7.7615332 11.50233398 -9.0625 11.5625 C-10.34350586 11.62727539 -10.34350586 11.62727539 -11.65039062 11.69335938 C-13.76672037 11.79976702 -15.88333813 11.90041731 -18 12 C-18.33 14.64 -18.66 17.28 -19 20 C-17.71222656 19.98839844 -16.42445313 19.97679688 -15.09765625 19.96484375 C-13.41927228 19.9554673 -11.74088674 19.94636695 -10.0625 19.9375 C-8.78729492 19.92493164 -8.78729492 19.92493164 -7.48632812 19.91210938 C-6.67744141 19.90888672 -5.86855469 19.90566406 -5.03515625 19.90234375 C-4.2862915 19.89710693 -3.53742676 19.89187012 -2.76586914 19.88647461 C-1 20 -1 20 0 21 C0.14257189 24.33618231 0.04228157 27.65975606 0 31 C-6.27 31 -12.54 31 -19 31 C-19 34.3 -19 37.6 -19 41 C-16.96005859 41.09087891 -16.96005859 41.09087891 -14.87890625 41.18359375 C-13.10675903 41.26798171 -11.33462423 41.35263058 -9.5625 41.4375 C-8.66466797 41.47681641 -7.76683594 41.51613281 -6.84179688 41.55664062 C-5.98779297 41.59853516 -5.13378906 41.64042969 -4.25390625 41.68359375 C-3.46314697 41.72025146 -2.6723877 41.75690918 -1.85766602 41.79467773 C0 42 0 42 1 43 C1.07179964 44.51928038 1.08392007 46.04167482 1.0625 47.5625 C1.05347656 48.38878906 1.04445312 49.21507812 1.03515625 50.06640625 C1.02355469 50.70449219 1.01195312 51.34257813 1 52 C-3.26456854 53.42152285 -7.34495685 53.22445293 -11.8125 53.25 C-12.70259766 53.270625 -13.59269531 53.29125 -14.50976562 53.3125 C-19.73184065 53.34346857 -23.60199332 53.12922448 -28 50 C-31.82966816 45.33327705 -32.58518125 41.58954772 -32.49609375 35.71484375 C-32.49754898 34.93613419 -32.49900421 34.15742462 -32.50050354 33.3551178 C-32.49885108 31.71709431 -32.48736314 30.07905423 -32.46655273 28.44116211 C-32.43754318 25.94122121 -32.44596718 23.44339713 -32.45898438 20.94335938 C-32.45274756 19.34634392 -32.44435706 17.74933511 -32.43359375 16.15234375 C-32.43652939 15.40951645 -32.43946503 14.66668915 -32.44248962 13.90135193 C-32.36160267 9.43105499 -31.74722072 6.55802521 -29 3 C-21.00183498 -2.89338475 -9.33467784 -1.86693557 0 0 Z " fill="#000000" transform="translate(225,37)"/>
<path d="M0 0 C1.79244141 0.01740234 1.79244141 0.01740234 3.62109375 0.03515625 C5.41740234 0.04869141 5.41740234 0.04869141 7.25 0.0625 C8.17683594 0.07410156 9.10367188 0.08570313 10.05859375 0.09765625 C10.18545814 6.84183652 10.27297186 13.58570869 10.33325195 20.33081055 C10.35838303 22.62487283 10.39249344 24.91885515 10.43579102 27.21264648 C10.49650207 30.51175674 10.52481812 33.80980771 10.546875 37.109375 C10.57268143 38.13350998 10.59848785 39.15764496 10.62507629 40.21281433 C10.62694056 44.95482456 10.61709205 47.32493942 7.77734375 51.25390625 C5.17119104 53.02129717 4.13534099 53.71053215 1.0703125 53.5859375 C0.36455078 53.56982422 -0.34121094 53.55371094 -1.06835938 53.53710938 C-2.15020508 53.47426758 -2.15020508 53.47426758 -3.25390625 53.41015625 C-3.99447266 53.38759766 -4.73503906 53.36503906 -5.49804688 53.34179688 C-7.31337982 53.28323775 -9.12766306 53.19356511 -10.94140625 53.09765625 C-10.94140625 49.13765625 -10.94140625 45.17765625 -10.94140625 41.09765625 C-8.63140625 41.09765625 -6.32140625 41.09765625 -3.94140625 41.09765625 C-3.94664307 39.89117432 -3.95187988 38.68469238 -3.95727539 37.44165039 C-3.97532236 32.98202247 -3.98683714 28.52239779 -3.99633789 24.06274414 C-4.00137881 22.1294704 -4.00821144 20.19620049 -4.0168457 18.26293945 C-4.0289219 15.49038753 -4.03463682 12.71788584 -4.0390625 9.9453125 C-4.04422379 9.07552261 -4.04938507 8.20573273 -4.05470276 7.30958557 C-4.0548981 5.23859811 -4.00348793 3.16771301 -3.94140625 1.09765625 C-2.94140625 0.09765625 -2.94140625 0.09765625 0 0 Z " fill="#000000" transform="translate(174.94140625,36.90234375)"/>
<path d="M0 0 C1.546875 1.59765625 1.546875 1.59765625 1.546875 5.59765625 C-1.78139482 5.18162252 -4.33692381 4.21404308 -7.265625 2.66015625 C-16.80166697 -2.25994045 -25.57721874 -2.28316111 -35.765625 0.66015625 C-38.30500528 1.54598658 -40.57946896 2.59101482 -42.953125 3.84765625 C-44.108125 4.42515625 -45.263125 5.00265625 -46.453125 5.59765625 C-47.443125 5.26765625 -48.433125 4.93765625 -49.453125 4.59765625 C-49.453125 3.27765625 -49.453125 1.95765625 -49.453125 0.59765625 C-32.34056877 -7.81315191 -16.90498516 -11.24001673 0 0 Z " fill="#81B63A" transform="translate(147.453125,15.40234375)"/>
<path d="M0 0 C1.28125 2.16796875 1.28125 2.16796875 2 4 C0.27734375 4.65234375 0.27734375 4.65234375 -2 5 C-4.12109375 4.00390625 -4.12109375 4.00390625 -6.4375 2.5625 C-12.58316413 -0.66872547 -18.17532253 -1.09294957 -25 0 C-27.84922651 1.12986568 -30.36582052 2.40363417 -32.9765625 4.00390625 C-35 5 -35 5 -38 4 C-37.82421875 2.16796875 -37.82421875 2.16796875 -37 0 C-25.28880698 -7.4017932 -11.52437696 -8.22219972 0 0 Z " fill="#6E9C31" transform="translate(142,23)"/>
<path d="M0 0 C1.97563563 1.59627418 2.19866397 2.80019787 2.56640625 5.265625 C0.41752189 4.80514978 -1.33971363 4.31775843 -3.26953125 3.24609375 C-7.15436181 1.48599904 -11.25639804 1.80369183 -15.43359375 2.265625 C-18.76803319 3.72286385 -18.76803319 3.72286385 -21.43359375 5.265625 C-22.42359375 4.935625 -23.41359375 4.605625 -24.43359375 4.265625 C-23.43359375 1.265625 -23.43359375 1.265625 -21.6484375 0.09765625 C-13.65480355 -3.4809689 -8.01888319 -3.95451774 0 0 Z " fill="#80B539" transform="translate(134.43359375,28.734375)"/>
<path d="M0 0 C0 0.66 0 1.32 0 2 C1.32 2.33 2.64 2.66 4 3 C3.29875 3.17015625 2.5975 3.3403125 1.875 3.515625 C-2.84204508 4.72052238 -7.19722 5.93805851 -11.5 8.25 C-12.655 8.8275 -13.81 9.405 -15 10 C-15.99 9.67 -16.98 9.34 -18 9 C-18 7.68 -18 6.36 -18 5 C-15.94587752 3.96241251 -13.88130395 2.9454966 -11.8125 1.9375 C-10.66394531 1.36902344 -9.51539062 0.80054688 -8.33203125 0.21484375 C-4.88683423 -1.04125973 -3.42091601 -1.12742053 0 0 Z " fill="#80B539" transform="translate(116,11)"/>
<path d="M0 0 C0 0.66 0 1.32 0 2 C-0.66 2 -1.32 2 -2 2 C-2 2.66 -2 3.32 -2 4 C-7.28 4 -12.56 4 -18 4 C-18 3.34 -18 2.68 -18 2 C-18.66 2 -19.32 2 -20 2 C-20 1.34 -20 0.68 -20 0 C-13.14975385 -1.37004923 -6.85024615 -1.37004923 0 0 Z " fill="#8BC045" transform="translate(134,9)"/>
<path d="M0 0 C-0.33 0.99 -0.66 1.98 -1 3 C-4.36983335 2.30713707 -7.16950126 1.0138451 -10.25 -0.5 C-14.97165642 -2.69921447 -18.81969147 -3.70677499 -24 -4 C-24 -4.33 -24 -4.66 -24 -5 C-13.67408362 -6.72098606 -8.46062386 -6.58048522 0 0 Z " fill="#7FB439" transform="translate(144,25)"/>
<path d="M0 0 C-0.0625 1.75 -0.0625 1.75 -1 4 C-3.25409924 5.76735287 -5.35758466 6.7699101 -8 8 C-8.99 7.67 -9.98 7.34 -11 7 C-10.875 5.1875 -10.875 5.1875 -10 3 C-6.32115375 0.71094011 -4.38448044 0 0 0 Z " fill="#7DB138" transform="translate(115,20)"/>
<path d="M0 0 C0 0.33 0 0.66 0 1 C-1.10408203 1.18175781 -1.10408203 1.18175781 -2.23046875 1.3671875 C-3.20628906 1.53476562 -4.18210937 1.70234375 -5.1875 1.875 C-6.15042969 2.03742187 -7.11335938 2.19984375 -8.10546875 2.3671875 C-10.91032604 2.98039517 -13.37224747 3.85666343 -16 5 C-16 3.68 -16 2.36 -16 1 C-10.33038134 -2.87921277 -6.22467519 -1.70994042 0 0 Z " fill="#73A233" transform="translate(127,29)"/>
<path d="M0 0 C6.27 0 12.54 0 19 0 C19 0.66 19 1.32 19 2 C12.73 2 6.46 2 0 2 C0 1.34 0 0.68 0 0 Z " fill="#3F591C" transform="translate(120,86)"/>
<path d="M0 0 C3.96 0 7.92 0 12 0 C12 0.66 12 1.32 12 2 C8.04 2 4.08 2 0 2 C0 1.34 0 0.68 0 0 Z " fill="#496721" transform="translate(125,83)"/>
<path d="M0 0 C1.32 0 2.64 0 4 0 C3.67 1.32 3.34 2.64 3 4 C1.35 4.33 -0.3 4.66 -2 5 C-1.34 3.35 -0.68 1.7 0 0 Z " fill="#87BF3C" transform="translate(111,20)"/>
<path d="M0 0 C0 0.99 0 1.98 0 3 C-3.96 2.67 -7.92 2.34 -12 2 C-12 1.67 -12 1.34 -12 1 C-7.95858806 0.36605303 -4.0934693 -0.12404452 0 0 Z " fill="#8FCB41" transform="translate(132,19)"/>
<path d="M0 0 C2.97 0 5.94 0 9 0 C9 0.66 9 1.32 9 2 C6.03 2 3.06 2 0 2 C0 1.34 0 0.68 0 0 Z " fill="#46641F" transform="translate(127,80)"/>
</svg>
