<?xml version="1.0" encoding="UTF-8"?>
<svg version="1.1" xmlns="http://www.w3.org/2000/svg" width="2400" height="811">
<path d="M0 0 C0.60038086 0.51554443 1.20076172 1.03108887 1.81933594 1.56225586 C5.56910863 4.86345259 8.32721555 8.04265866 11.625 12 C-15.105 38.73 -15.105 38.73 -42.375 66 C-50.375 60 -50.375 60 -53.8125 56.875 C-71.18575806 41.53370195 -91.70027893 30.81629636 -113.375 23 C-114.06803223 22.74879395 -114.76106445 22.49758789 -115.47509766 22.23876953 C-131.45344481 16.56623978 -148.71599887 13.38378355 -165.625 12.4375 C-166.65560547 12.37272461 -166.65560547 12.37272461 -167.70703125 12.30664062 C-223.26554941 9.08363267 -274.54191901 28.91799711 -315.76904297 65.55517578 C-353.79996521 99.77028643 -375.5769347 151.44640261 -378.375 202 C-380.82669326 255.02144411 -363.96826908 308.41990799 -328.0625 347.9375 C-327.23363281 348.82824219 -326.40476562 349.71898437 -325.55078125 350.63671875 C-323.86688518 352.46572615 -322.2876415 354.3009494 -320.75 356.25 C-317.58843113 359.91076395 -314.09395337 362.91612944 -310.375 366 C-309.85647461 366.43618652 -309.33794922 366.87237305 -308.80371094 367.32177734 C-299.49851939 375.1219507 -289.89993396 381.94442645 -279.375 388 C-278.28493652 388.63035156 -278.28493652 388.63035156 -277.17285156 389.2734375 C-258.80183834 399.75754362 -239.09440387 406.81065345 -218.375 411 C-217.17230469 411.24556641 -217.17230469 411.24556641 -215.9453125 411.49609375 C-167.34424292 420.8902302 -111.85957907 412.01015072 -70.4609375 384.45703125 C-63.119761 379.38667565 -56.14075163 373.81035731 -49.375 368 C-48.39789062 367.16984375 -47.42078125 366.3396875 -46.4140625 365.484375 C-18.01456051 340.79890033 -6.37460276 306.19916731 0.14770508 270.22045898 C0.625 268 0.625 268 1.625 266 C-58.435 266 -118.495 266 -180.375 266 C-180.375 240.59 -180.375 215.18 -180.375 189 C-95.565 189 -10.755 189 76.625 189 C78.19233204 194.48566215 79.17114411 199.09122687 79.73046875 204.65625 C79.85629585 205.89163513 79.85629585 205.89163513 79.98466492 207.15197754 C80.87332484 216.59609953 80.97815553 226.02063123 80.9375 235.5 C80.93534485 236.41308929 80.9331897 237.32617859 80.93096924 238.26693726 C80.87291786 253.68326901 80.15898985 268.76366286 77.625 284 C77.43695801 285.14082031 77.24891602 286.28164063 77.05517578 287.45703125 C68.57572964 336.8361448 47.90664786 381.1772533 12.625 417 C11.62276204 418.03946304 10.62139745 419.07976919 9.62109375 420.12109375 C3.64786854 426.24726072 -2.64390929 431.7257755 -9.375 437 C-10.33664062 437.77859375 -11.29828125 438.5571875 -12.2890625 439.359375 C-59.54940457 476.92835579 -118.39645971 492.5379789 -178.0625 492.3125 C-179.06935852 492.31067719 -180.07621704 492.30885437 -181.11358643 492.30697632 C-196.40027222 492.26048046 -211.29863853 491.73479437 -226.375 489 C-227.33809082 488.83371094 -228.30118164 488.66742187 -229.29345703 488.49609375 C-292.94749269 477.27586223 -356.48198544 442.78342544 -397.16796875 391.765625 C-398.60492777 389.96497547 -400.06497543 388.18243486 -401.55078125 386.421875 C-411.82356463 374.2332084 -420.52519465 360.85359027 -428.375 347 C-428.96812988 345.95948486 -428.96812988 345.95948486 -429.57324219 344.89794922 C-451.06903699 306.79021783 -461.79003804 263.56055575 -463.375 220 C-463.41753906 218.91074219 -463.46007812 217.82148438 -463.50390625 216.69921875 C-464.5407328 161.19443752 -447.38837094 105.84865507 -416.375 60 C-415.93945801 59.35353516 -415.50391602 58.70707031 -415.05517578 58.04101562 C-409.05130696 49.20487189 -402.41142918 41.02968441 -395.375 33 C-394.68277344 32.195625 -393.99054688 31.39125 -393.27734375 30.5625 C-382.65346608 18.44431969 -371.18817947 6.79831371 -358.375 -3 C-357.3746875 -3.7940625 -356.374375 -4.588125 -355.34375 -5.40625 C-279.03766758 -65.72740263 -170.42521339 -83.9030751 0 0 Z " fill="#4185F4" transform="translate(565.375,102)"/>
<path d="M0 0 C0.6922467 -0.00067474 1.38449341 -0.00134949 2.09771729 -0.00204468 C12.72597066 0.01440487 22.72400174 0.58477384 33.0625 3.25 C33.74344727 3.41628906 34.42439453 3.58257812 35.12597656 3.75390625 C57.24510197 9.22542605 75.95563247 19.9521281 92 36.1875 C94.08292876 38.40525861 94.08292876 38.40525861 97.0625 40.25 C97.0625 30.68 97.0625 21.11 97.0625 11.25 C122.1425 11.25 147.2225 11.25 173.0625 11.25 C173.12879396 53.94296909 173.18412547 96.63588914 173.21569599 139.32889507 C173.21944754 144.38373287 173.22333056 149.43857057 173.22729492 154.4934082 C173.22808185 155.49961961 173.22886878 156.50583101 173.22967956 157.54253367 C173.24268837 173.77657364 173.26631691 190.01058133 173.29395839 206.24460223 C173.32213918 222.93615342 173.33870286 239.62768785 173.34476548 256.31926185 C173.34885582 266.59614002 173.36171382 276.87292689 173.3862494 287.14977691 C173.40226359 294.22320089 173.40686545 301.29657855 173.40300413 308.37001928 C173.4011066 312.43433407 173.40374711 316.49849082 173.42011642 320.56277657 C173.63593183 377.05385562 165.04793865 433.23992539 124.0625 475.25 C123.423125 475.95125 122.78375 476.6525 122.125 477.375 C95.57538532 505.75562259 52.50497991 518.9894624 14.62036133 520.37597656 C-32.27792777 521.36048858 -77.4254626 510.50251609 -112.4765625 477.55859375 C-114.66266981 475.50781689 -116.8985155 473.55879725 -119.1875 471.625 C-123.17538055 468.13762267 -126.59228614 464.35236102 -129.9375 460.25 C-131.06285156 458.88101563 -131.06285156 458.88101563 -132.2109375 457.484375 C-156.9375 426.43966877 -156.9375 426.43966877 -156.9375 413.25 C-141.51684642 406.55157522 -126.04324766 399.97643632 -110.51370239 393.53442383 C-108.75358436 392.80273259 -106.99485158 392.06770018 -105.23751831 391.3293457 C-102.75452102 390.28713104 -100.26673163 389.25730779 -97.77734375 388.23046875 C-96.65410706 387.75482735 -96.65410706 387.75482735 -95.50817871 387.26957703 C-90.28008076 385.13580641 -90.28008076 385.13580641 -86.9375 386.25 C-85.48002352 388.81325108 -84.16215041 391.35335548 -82.875 394 C-71.5351346 416.28450762 -52.68874175 434.76928816 -28.70849609 443.01660156 C-1.67875619 451.53105377 27.75154925 449.32632254 53.0625 436.25 C56.93168286 433.80813781 60.51063849 431.12988771 64.0625 428.25 C64.78050781 427.69570313 65.49851562 427.14140625 66.23828125 426.5703125 C85.8531145 410.64992357 93.42831623 383.32308981 96.0625 359.25 C96.58315587 352.19746477 96.65996725 345.13104232 96.75 338.0625 C96.78329856 336.22198298 96.8177989 334.3814873 96.85351562 332.54101562 C96.93694898 328.11079893 97.00440931 323.68061844 97.0625 319.25 C92.83636143 322.90860268 88.69399089 326.60096289 84.6875 330.5 C56.90870249 355.35694228 20.90467699 360.51435691 -14.9375 359.25 C-21.39755883 358.80939632 -27.64389014 357.74963344 -33.9375 356.25 C-35.19216064 355.95198486 -35.19216064 355.95198486 -36.47216797 355.64794922 C-82.08150099 344.42427003 -121.18225743 315.00762469 -145.80297852 275.16210938 C-171.24068618 232.75771203 -178.2378169 182.61629594 -166.52392578 134.71264648 C-158.46975152 103.52348552 -142.8884398 76.70395001 -120.9375 53.25 C-119.63039063 51.84427734 -119.63039063 51.84427734 -118.296875 50.41015625 C-87.74864598 18.29753439 -44.11829648 0.03862331 0 0 Z M-53.9375 94.25 C-54.72769531 94.87519531 -55.51789063 95.50039063 -56.33203125 96.14453125 C-77.59621548 113.83365123 -89.02838698 142.07270607 -91.7565918 169.03515625 C-94.29278818 200.08559288 -85.81906493 229.88791618 -65.75 253.86328125 C-47.43237198 274.82042859 -23.52339835 286.52626543 4.23828125 288.47265625 C30.22193654 289.21689544 53.86295564 278.53600051 72.6875 261.0625 C94.22783176 238.08259161 103.80189593 207.75043455 103.3125 176.58203125 C102.41376793 157.29973462 97.8832895 139.43420472 89.0625 122.25 C88.55074219 121.24324219 88.03898437 120.23648438 87.51171875 119.19921875 C83.0941757 111.07051781 77.46576659 104.81622398 71.0625 98.25 C70.49015625 97.60417969 69.9178125 96.95835937 69.328125 96.29296875 C54.74497263 80.24398406 31.71320717 72.17963026 10.5546875 71.125 C-13.46515079 70.56477054 -35.48881042 79.16997271 -53.9375 94.25 Z " fill="#4185F4" transform="translate(1623.9375,234.75)"/>
<path d="M0 0 C35.29324537 30.84169887 55.05000842 74.39059395 59.30395508 120.72412109 C61.83341455 162.56559654 52.79348874 205.88910589 27.61645508 240.09912109 C26.85848633 241.14068359 26.10051758 242.18224609 25.31958008 243.25537109 C-0.39026097 277.9481062 -36.45354444 301.12114639 -78.38354492 311.09912109 C-79.26478027 311.31084961 -80.14601563 311.52257812 -81.05395508 311.74072266 C-105.78766118 317.40054806 -134.58723438 317.75666691 -159.38354492 312.09912109 C-160.14618652 311.93283203 -160.90882813 311.76654297 -161.69458008 311.59521484 C-207.17502214 301.45297296 -248.35778596 274.26091983 -273.54101562 234.73608398 C-299.29956582 193.26727989 -308.53377333 142.13831781 -297.74926758 94.28466797 C-290.03783917 61.99817792 -274.74674251 31.07454161 -250.38354492 8.09912109 C-248.71554011 6.43379365 -247.04894368 4.76705471 -245.38354492 3.09912109 C-222.13643042 -20.0676925 -191.0858247 -33.87863931 -159.38354492 -40.90087891 C-158.29493164 -41.14862061 -158.29493164 -41.14862061 -157.18432617 -41.40136719 C-101.99794744 -53.37740584 -42.3767687 -36.34104003 0 0 Z M-196.00805664 61.52099609 C-217.8352864 86.56380993 -223.10808449 117.88472203 -221.38354492 150.09912109 C-218.70677945 177.27858587 -204.91477549 203.17550667 -184.38354492 221.09912109 C-163.45759668 237.62979091 -137.74470875 246.66056571 -110.95385742 243.63818359 C-90.78663839 241.02207472 -72.88063324 233.4512837 -57.38354492 220.09912109 C-56.7209668 219.58091797 -56.05838867 219.06271484 -55.37573242 218.52880859 C-35.69213031 202.67035993 -24.83725725 176.9512182 -21.00854492 152.53662109 C-17.78978967 121.84230554 -23.639707 90.43615429 -43.10229492 65.84130859 C-43.85510742 64.93638672 -44.60791992 64.03146484 -45.38354492 63.09912109 C-46.11573242 62.21482422 -46.84791992 61.33052734 -47.60229492 60.41943359 C-63.77456535 41.68465553 -88.4608149 29.104572 -113.27026367 27.18896484 C-113.96764648 27.15931641 -114.6650293 27.12966797 -115.38354492 27.09912109 C-116.19436523 27.05916016 -117.00518555 27.01919922 -117.84057617 26.97802734 C-148.08780464 26.22516807 -175.77272471 39.35881622 -196.00805664 61.52099609 Z " fill="#EA4334" transform="translate(977.383544921875,278.90087890625)"/>
<path d="M0 0 C0.77867432 -0.00067474 1.55734863 -0.00134949 2.35961914 -0.00204468 C14.86717004 0.01513955 26.98357421 0.60959987 39.25 3.25 C40.03117187 3.41628906 40.81234375 3.58257812 41.6171875 3.75390625 C74.87950838 11.11523956 103.42268853 27.0986295 128.25 50.25 C129.04019531 50.97445312 129.83039063 51.69890625 130.64453125 52.4453125 C163.06832832 83.35006254 180.04449018 128.88519215 181.47265625 173.09375 C182.53699327 225.53503771 164.23618336 271.99988245 128.125 309.75 C94.34119016 342.80987106 48.14617411 359.46585539 1.4375 359.5 C0.60986145 359.50067474 -0.2177771 359.50134949 -1.07049561 359.50204468 C-13.52388113 359.48591296 -25.56596434 359.05086547 -37.75 356.25 C-38.53922852 356.07307617 -39.32845703 355.89615234 -40.14160156 355.71386719 C-57.36150184 351.75581945 -73.18789944 345.56405642 -88.75 337.25 C-89.77609375 336.70730469 -90.8021875 336.16460938 -91.859375 335.60546875 C-105.51303371 328.0221529 -117.53869359 318.04607284 -128.75 307.25 C-129.3790625 306.6725 -130.008125 306.095 -130.65625 305.5 C-140.71020556 296.01513627 -148.71860436 284.08236718 -155.75 272.25 C-156.0912793 271.67733398 -156.43255859 271.10466797 -156.78417969 270.51464844 C-181.14982577 228.94149344 -185.87397197 176.90039652 -173.92773438 130.66845703 C-161.53342316 85.7971214 -132.7791086 47.30770478 -92.375 23.9375 C-63.73686814 7.87150803 -32.77627546 0.02551726 0 0 Z M-65.75 97.25 C-66.51828125 97.93578125 -67.2865625 98.6215625 -68.078125 99.328125 C-83.79501012 114.16574382 -92.76334746 133.49272547 -97.75 154.25 C-97.99621094 155.26578125 -98.24242187 156.2815625 -98.49609375 157.328125 C-103.99632629 185.7017384 -98.53751463 217.91556477 -82.75 242.25 C-66.93515963 265.021237 -44.29659251 281.73594912 -16.703125 286.94921875 C-16.05859375 287.04847656 -15.4140625 287.14773438 -14.75 287.25 C-14.06421875 287.35957031 -13.3784375 287.46914063 -12.671875 287.58203125 C11.81021227 290.88447108 36.68418842 284.62490252 56.875 270.5 C81.00024716 252.042946 96.45609711 227.3656621 100.78125 196.99609375 C104.35778383 165.66755401 97.88208087 133.84070877 78.09594727 108.82006836 C60.80050039 87.67389995 36.85768734 74.47204681 9.68359375 71.53125 C-18.2959553 69.2394098 -44.94067408 78.50868162 -65.75 97.25 Z " fill="#FBBB04" transform="translate(1243.75,234.75)"/>
<path d="M0 0 C1.19629028 0.00323273 1.19629028 0.00323273 2.41674805 0.00653076 C13.94854791 0.05658097 25.10718832 0.3374977 36.3125 3.3125 C37.50020996 3.61849121 37.50020996 3.61849121 38.71191406 3.93066406 C81.61175604 15.23568571 116.88079118 43.44210801 139.21704102 81.74780273 C140.26579393 83.59388695 141.29379613 85.44968457 142.3125 87.3125 C142.9415625 88.45847656 143.570625 89.60445313 144.21875 90.78515625 C148.65010182 99.15132123 152.3612382 107.85702196 156.03646851 116.57513428 C156.5934022 117.89509774 157.15362259 119.21367948 157.7171936 120.53082275 C158.51225724 122.39568931 159.28966738 124.26805185 160.06640625 126.140625 C160.52345947 127.2327832 160.9805127 128.32494141 161.45141602 129.45019531 C162.35920856 132.46776259 162.47724653 133.4617157 161.3125 136.3125 C159.64587402 137.43840027 159.64587402 137.43840027 157.44335938 138.33276367 C156.61313263 138.67868561 155.78290588 139.02460754 154.92752075 139.38101196 C154.0130014 139.7438327 153.09848206 140.10665344 152.15625 140.48046875 C151.20426727 140.8722934 150.25228455 141.26411804 149.27145386 141.66781616 C146.12409134 142.95946722 142.96846613 144.22953254 139.8125 145.5 C137.61216971 146.39878495 135.41246843 147.29911123 133.21337891 148.20092773 C128.72747959 150.03854799 124.23858836 151.86854032 119.74707031 153.69238281 C111.52862196 157.03307924 103.33833984 160.44048569 95.14868164 163.85098267 C90.98390878 165.58380869 86.81623659 167.30962424 82.6484375 169.03515625 C81.39574066 169.55383522 81.39574066 169.55383522 80.11773682 170.08299255 C68.87836281 174.73542677 57.63440488 179.37677305 46.39071655 184.01876831 C28.57693418 191.3733798 10.77205618 198.7492882 -7.02862549 206.13554382 C-13.24864191 208.71626032 -19.4698519 211.29408742 -25.69140625 213.87109375 C-28.43380321 215.00726482 -31.17617986 216.1434849 -33.91854858 217.27972412 C-35.63919559 217.99251451 -37.35991526 218.70512955 -39.08071899 219.4175415 C-50.96810298 224.33908785 -62.83475541 229.30810013 -74.6875 234.3125 C-74.6875 242.28512367 -66.55240672 250.39281262 -61.6875 256.3125 C-60.90632813 257.31410156 -60.90632813 257.31410156 -60.109375 258.3359375 C-45.83635732 275.86542038 -23.25711964 284.49899405 -1.390625 286.99609375 C24.75804092 289.23031521 51.17113454 282.9047951 71.69946289 266.11230469 C74.29538496 263.90484422 76.80892677 261.62458179 79.3125 259.3125 C80.30636719 258.42304687 80.30636719 258.42304687 81.3203125 257.515625 C85.74834745 253.3553317 89.32902908 248.53379541 92.93823242 243.66650391 C96.11192995 239.41278502 96.11192995 239.41278502 98.3125 238.3125 C100.11575317 239.21917725 100.11575317 239.21917725 102.32470703 240.68652344 C103.15382599 241.23169617 103.98294495 241.7768689 104.83718872 242.33856201 C105.73911957 242.9435553 106.64105042 243.54854858 107.5703125 244.171875 C108.5061618 244.79088684 109.44201111 245.40989868 110.40621948 246.04766846 C113.4216863 248.0451317 116.42950659 250.0538048 119.4375 252.0625 C121.41229267 253.37179952 123.387548 254.6804015 125.36328125 255.98828125 C131.02659619 259.7429013 136.67385478 263.52094807 142.3125 267.3125 C143.15228394 267.87654541 143.99206787 268.44059082 144.8572998 269.02172852 C147.13545646 270.55552102 149.4086809 272.09627158 151.6796875 273.640625 C152.34638458 274.08976257 153.01308167 274.53890015 153.69998169 275.00164795 C158.19626759 278.08003518 158.19626759 278.08003518 159.3125 280.3125 C131.73383126 320.05822848 91.47777149 347.71295496 43.83105469 357.14916992 C20.5829237 361.29524957 -5.6164616 361.56290283 -28.6875 356.3125 C-29.46222656 356.14089355 -30.23695313 355.96928711 -31.03515625 355.79248047 C-61.49842058 348.86394535 -89.51803228 335.43518901 -112.171875 313.6875 C-114.64511101 311.28677969 -114.64511101 311.28677969 -117.3203125 309.2109375 C-120.94176509 306.30660424 -123.73535095 302.88060496 -126.6875 299.3125 C-127.09806641 298.81959473 -127.50863281 298.32668945 -127.93164062 297.81884766 C-135.10909845 289.14652398 -141.2714004 280.18139107 -146.6875 270.3125 C-147.03409668 269.68118164 -147.38069336 269.04986328 -147.73779297 268.39941406 C-172.09872459 223.33912814 -175.56209377 169.31404463 -161.30859375 120.44921875 C-148.21195217 78.05353193 -119.97795354 41.2101972 -80.81567383 19.85742188 C-55.47513093 6.48471545 -28.67868074 -0.13929645 0 0 Z M-67.9375 105 C-83.95777266 125.20738938 -90.13485208 147.87193161 -89.6875 173.3125 C-78.47454712 169.22537134 -67.44290797 164.78248183 -56.44924927 160.13980103 C-51.72926793 158.14671367 -47.00488849 156.1640878 -42.28125 154.1796875 C-41.31510269 153.77347672 -40.34895538 153.36726593 -39.35353088 152.94874573 C-29.49940009 148.80767395 -19.62635637 144.7127181 -9.75 140.625 C-6.36969531 139.22549302 -2.98948957 137.82574735 0.390625 136.42578125 C1.21496033 136.08437607 2.03929565 135.74297089 2.88861084 135.39122009 C11.76530138 131.71324335 20.63252695 128.01262886 29.5 124.3125 C42.41509439 118.92386226 55.34789295 113.58115639 68.3125 108.3125 C66.93156162 99.24909985 60.11405687 92.06675832 53.3125 86.3125 C13.92009173 57.51652982 -37.19635106 69.92172772 -67.9375 105 Z " fill="#EA4334" transform="translate(2121.6875,234.6875)"/>
<path d="M0 0 C25.41 0 50.82 0 77 0 C77 173.58 77 347.16 77 526 C51.59 526 26.18 526 0 526 C0 352.42 0 178.84 0 0 Z " fill="#33A752" transform="translate(1843,57)"/>
</svg>
