<?xml version="1.0" encoding="UTF-8"?>
<svg version="1.1" xmlns="http://www.w3.org/2000/svg" width="344" height="100">
<path d="M0 0 C4.23301121 2.82200747 7.17159664 5.95228992 8.8125 10.875 C14.0925 11.205 19.3725 11.535 24.8125 11.875 C24.91194869 17.69160061 24.9842413 23.50769792 25.03222656 29.32495117 C25.05224646 31.3006249 25.07947092 33.27624009 25.11425781 35.25170898 C25.16320207 38.1041515 25.18556525 40.95580549 25.203125 43.80859375 C25.22377014 44.68084091 25.24441528 45.55308807 25.26568604 46.45176697 C25.26815745 53.32465565 23.85208662 59.59580442 19.06207275 64.76341248 C14.5084012 68.94464045 10.110598 71.13514827 3.83862305 71.10205078 C2.86469604 71.10180908 1.89076904 71.10156738 0.8873291 71.10131836 C-0.12349731 71.09108643 -1.13432373 71.08085449 -2.17578125 71.0703125 C-3.1143396 71.06829834 -4.05289795 71.06628418 -5.01989746 71.06420898 C-8.51331496 71.05377456 -12.00666258 71.025852 -15.5 71 C-23.316875 70.95875 -31.13375 70.9175 -39.1875 70.875 C-39.1875 51.405 -39.1875 31.935 -39.1875 11.875 C-33.9075 11.875 -28.6275 11.875 -23.1875 11.875 C-22.8575 10.225 -22.5275 8.575 -22.1875 6.875 C-20.4453125 4.890625 -20.4453125 4.890625 -18.3125 3.125 C-17.61382813 2.53203125 -16.91515625 1.9390625 -16.1953125 1.328125 C-11.29019991 -2.22187866 -5.47084869 -1.93088777 0 0 Z M-17.1875 9.875 C-17.1875 10.535 -17.1875 11.195 -17.1875 11.875 C-10.48057364 15.16519029 -5.33013524 15.24750977 1.8125 12.875 C2.1425 12.215 2.4725 11.555 2.8125 10.875 C0.05963716 6.36283222 0.05963716 6.36283222 -4.5703125 4.30078125 C-10.44814198 4.04636774 -13.60407683 4.85820756 -17.1875 9.875 Z " fill="#4E964D" transform="translate(39.1875,14.125)"/>
<path d="M0 0 C4.23301121 2.82200747 7.17159664 5.95228992 8.8125 10.875 C14.0925 11.205 19.3725 11.535 24.8125 11.875 C24.91194869 17.69160061 24.9842413 23.50769792 25.03222656 29.32495117 C25.05224646 31.3006249 25.07947092 33.27624009 25.11425781 35.25170898 C25.16320207 38.1041515 25.18556525 40.95580549 25.203125 43.80859375 C25.22377014 44.68084091 25.24441528 45.55308807 25.26568604 46.45176697 C25.26815745 53.32465565 23.85208662 59.59580442 19.06207275 64.76341248 C14.5084012 68.94464045 10.110598 71.13514827 3.83862305 71.10205078 C2.86469604 71.10180908 1.89076904 71.10156738 0.8873291 71.10131836 C-0.12349731 71.09108643 -1.13432373 71.08085449 -2.17578125 71.0703125 C-3.1143396 71.06829834 -4.05289795 71.06628418 -5.01989746 71.06420898 C-8.51331496 71.05377456 -12.00666258 71.025852 -15.5 71 C-23.316875 70.95875 -31.13375 70.9175 -39.1875 70.875 C-39.1875 51.405 -39.1875 31.935 -39.1875 11.875 C-33.9075 11.875 -28.6275 11.875 -23.1875 11.875 C-22.8575 10.225 -22.5275 8.575 -22.1875 6.875 C-20.4453125 4.890625 -20.4453125 4.890625 -18.3125 3.125 C-17.61382813 2.53203125 -16.91515625 1.9390625 -16.1953125 1.328125 C-11.29019991 -2.22187866 -5.47084869 -1.93088777 0 0 Z M-17.1875 9.875 C-17.1875 10.535 -17.1875 11.195 -17.1875 11.875 C-10.48057364 15.16519029 -5.33013524 15.24750977 1.8125 12.875 C2.1425 12.215 2.4725 11.555 2.8125 10.875 C0.05963716 6.36283222 0.05963716 6.36283222 -4.5703125 4.30078125 C-10.44814198 4.04636774 -13.60407683 4.85820756 -17.1875 9.875 Z M-8.1875 17.875 C-8.1875 21.505 -8.1875 25.135 -8.1875 28.875 C-9.91276042 27.34505208 -11.63802083 25.81510417 -13.36328125 24.28515625 C-17.05916384 21.42816778 -20.67973298 21.49298585 -25.1875 21.875 C-29.47642996 24.14560998 -32.82729385 26.60847349 -35.1875 30.875 C-35.99107387 36.23762561 -35.87828015 40.4934397 -33.4375 45.375 C-29.37355667 49.89049259 -26.63979782 51.4897668 -20.5625 52.01953125 C-17.18960724 51.81427297 -14.87029099 50.54101877 -11.984375 48.8671875 C-9.77835969 47.64908339 -7.67709245 47.18619906 -5.1875 46.875 C-4.8575 45.885 -4.5275 44.895 -4.1875 43.875 C-3.3625 44.7 -2.5375 45.525 -1.6875 46.375 C1.46667706 48.98612299 3.79924812 49.57607948 7.85546875 49.296875 C12.41296609 48.31442048 15.12543516 45.8826951 17.6875 42.125 C18.05875 41.3825 18.43 40.64 18.8125 39.875 C18.60227719 43.55389913 17.83273532 44.85274115 15.3125 47.625 C11.46945974 50.58830815 7.51917662 50.66581437 2.8125 50.875 C-0.96833645 51.21107435 -1.78882905 51.43076666 -4.375 54.3125 C-5.2721875 55.5809375 -5.2721875 55.5809375 -6.1875 56.875 C-6.8475 57.535 -7.5075 58.195 -8.1875 58.875 C-8.21058597 61.09628555 -8.21058597 61.09628555 -7.8125 63.5 C-7.70164062 64.31726563 -7.59078125 65.13453125 -7.4765625 65.9765625 C-7.38117187 66.60304687 -7.28578125 67.22953125 -7.1875 67.875 C3.81923027 68.60404106 3.81923027 68.60404106 13.8125 64.875 C18.35057166 60.49560217 21.88064747 56.3209491 22.03955078 49.84082031 C22.03923545 48.21155422 22.02801465 46.58226587 22.0078125 44.953125 C22.00356766 43.66314606 22.00356766 43.66314606 21.99923706 42.34710693 C21.9880615 39.60626179 21.96296179 36.86574602 21.9375 34.125 C21.9274668 32.26432764 21.91834155 30.40365015 21.91015625 28.54296875 C21.88813076 23.98685268 21.85361897 19.43098214 21.8125 14.875 C6.52935025 14.29053366 6.52935025 14.29053366 -8.1875 17.875 Z " fill="#82C366" transform="translate(39.1875,14.125)"/>
<path d="M0 0 C0.09958121 4.55315922 0.17179985 9.10567152 0.21972656 13.65966797 C0.23972503 15.20567887 0.26693331 16.75161527 0.30175781 18.29736328 C0.6531829 34.30787695 0.6531829 34.30787695 -4 41 C-9.07247904 45.71015911 -12.39942297 46.36208216 -19.171875 46.2734375 C-23.55261717 45.84988508 -25.53631339 44.75681179 -29 42 C-32.95477436 37.03118093 -33.64731807 32.96435079 -33.37890625 26.65234375 C-32.58063059 21.06441416 -30.37824277 18.07502936 -25.875 14.5625 C-21.48320978 12.35237663 -16.80233424 12.30820646 -12 13 C-9.69921875 14.0234375 -9.69921875 14.0234375 -8 15 C-8.05220703 13.87851562 -8.05220703 13.87851562 -8.10546875 12.734375 C-8.13253906 11.74953125 -8.15960938 10.7646875 -8.1875 9.75 C-8.23970703 8.28820312 -8.23970703 8.28820312 -8.29296875 6.796875 C-7.68530731 0.99573376 -5.50559279 -0.23646068 0 0 Z M-24 23 C-25.73098259 26.46196518 -25.47149742 30.21454927 -25 34 C-22.88073593 37.39082252 -21.40151938 37.88319436 -17.5625 39 C-13.95644957 39.30055659 -13.95644957 39.30055659 -11.125 37.3125 C-7.14565681 32.98203829 -7.90608301 28.63501968 -8 23 C-14.78073105 19.92948028 -17.42980587 19.28641201 -24 23 Z " fill="#42B549" transform="translate(293,26)"/>
<path d="M0 0 C5.28073816 2.7606462 8.07619529 6.76764838 9.92578125 12.31640625 C10.29404349 17.93240541 10.14134132 21.49306614 6.92578125 26.31640625 C2.57376487 30.61039574 -0.46566801 32.45748138 -6.57421875 32.44140625 C-7.55390625 32.44398437 -8.53359375 32.4465625 -9.54296875 32.44921875 C-12.07421875 32.31640625 -12.07421875 32.31640625 -14.07421875 31.31640625 C-14.40421875 35.93640625 -14.73421875 40.55640625 -15.07421875 45.31640625 C-17.05421875 44.98640625 -19.03421875 44.65640625 -21.07421875 44.31640625 C-24.2763011 39.51328273 -23.40780215 34.25176992 -23.38989258 28.60229492 C-23.38674526 26.52143356 -23.41015163 24.44201245 -23.43554688 22.36132812 C-23.43782143 21.02734553 -23.43852264 19.69335914 -23.4375 18.359375 C-23.44048096 17.1530542 -23.44346191 15.9467334 -23.4465332 14.70385742 C-22.96381276 10.31189275 -21.57074624 6.91955657 -18.5390625 3.671875 C-12.67684074 -0.81100046 -7.31716074 -2.41149365 0 0 Z M-13.07421875 9.31640625 C-15.28335875 12.63011625 -15.29903428 13.66100835 -15.19921875 17.50390625 C-15.18117187 18.40496094 -15.163125 19.30601563 -15.14453125 20.234375 C-15.12132812 20.92144531 -15.098125 21.60851563 -15.07421875 22.31640625 C-11.5649274 24.45621805 -9.54505287 25.33236673 -5.38671875 25.19140625 C-2.1769979 24.34355546 -0.9697197 23.94904646 0.92578125 21.31640625 C2.47602589 18.21591697 2.2157014 15.73746407 1.92578125 12.31640625 C-0.03493118 8.84745349 -1.22965824 7.60391621 -5.01171875 6.31640625 C-8.67714016 6.31640625 -10.20477898 7.08461977 -13.07421875 9.31640625 Z " fill="#42B549" transform="translate(214.07421875,39.68359375)"/>
<path d="M0 0 C4.00815699 2.33993696 6.97266433 4.62249334 8.68359375 9.05078125 C9.17859375 13.50578125 9.17859375 13.50578125 9.68359375 18.05078125 C-2.69140625 18.54578125 -2.69140625 18.54578125 -15.31640625 19.05078125 C-13.66640625 20.70078125 -12.01640625 22.35078125 -10.31640625 24.05078125 C-6.63345096 23.92378279 -3.79696067 23.21096606 -0.31640625 22.05078125 C-0.31640625 21.39078125 -0.31640625 20.73078125 -0.31640625 20.05078125 C4.43359375 21.92578125 4.43359375 21.92578125 6.68359375 23.05078125 C6.44175269 26.31563559 5.43222879 27.31440792 3.12109375 29.73828125 C-0.47722976 32.52741239 -3.8140656 33.1994022 -8.31640625 33.05078125 C-13.94049637 32.08111054 -17.28956306 30.07762444 -21.31640625 26.05078125 C-24.099491 21.96892361 -24.96985224 18.29776112 -24.796875 13.4296875 C-23.64707707 7.73678553 -20.12618646 3.40811641 -15.56640625 -0.01171875 C-10.2619908 -1.54183859 -5.21686269 -2.13777004 0 0 Z M-13.31640625 8.05078125 C-13.64640625 9.04078125 -13.97640625 10.03078125 -14.31640625 11.05078125 C-9.36640625 11.05078125 -4.41640625 11.05078125 0.68359375 11.05078125 C-3.6158289 6.7513586 -7.80916542 3.9713436 -13.31640625 8.05078125 Z " fill="#42B549" transform="translate(249.31640625,39.94921875)"/>
<path d="M0 0 C0.33 7.92 0.66 15.84 1 24 C4.69346926 22.76884358 4.86090074 21.87119351 6.5625 18.5 C8.79639449 14.10180276 8.79639449 14.10180276 11 13 C13.6723621 12.86584528 16.32250488 12.95681459 19 13 C18.566875 13.84304687 18.13375 14.68609375 17.6875 15.5546875 C17.130625 16.65039062 16.57375 17.74609375 16 18.875 C15.443125 19.96554688 14.88625 21.05609375 14.3125 22.1796875 C12.85935906 24.78375082 12.85935906 24.78375082 13 27 C13.99307821 28.33849671 14.99357052 29.67151309 16 31 C17.04976964 34.14930893 17.10131595 36.38814456 17.0625 39.6875 C17.05347656 40.68136719 17.04445312 41.67523438 17.03515625 42.69921875 C17.02355469 43.45847656 17.01195312 44.21773437 17 45 C15.1328125 45.5859375 15.1328125 45.5859375 13 46 C9.45271214 43.70469609 8.63547704 41.20346791 7.75 37.25 C7.48544138 35.83597978 7.23059099 34.41995501 7 33 C4.69 32.67 2.38 32.34 0 32 C0 36.62 0 41.24 0 46 C-5 45 -5 45 -6.78759766 43.96655273 C-8.7815397 40.73231931 -8.42631478 37.22219268 -8.3984375 33.53515625 C-8.40130768 32.70543808 -8.40417786 31.87571991 -8.40713501 31.02085876 C-8.40917583 29.26658445 -8.40364465 27.51228739 -8.39111328 25.75805664 C-8.37507959 23.07581504 -8.39095023 20.39508489 -8.41015625 17.71289062 C-8.40817342 16.00780918 -8.40432893 14.30272867 -8.3984375 12.59765625 C-8.40451019 11.79650894 -8.41058289 10.99536163 -8.4168396 10.16993713 C-8.37610251 6.93558976 -8.19210231 4.40203772 -6.78759766 1.46264648 C-5 0 -5 0 0 0 Z " fill="#42B549" transform="translate(137,26)"/>
<path d="M0 0 C2.94094807 2.03065462 4.62683812 3.84908433 6.625 6.8125 C7.07910156 9.67504883 7.07910156 9.67504883 7.015625 12.76953125 C7.00273437 13.88134766 6.98984375 14.99316406 6.9765625 16.13867188 C6.94304687 17.28916016 6.90953125 18.43964844 6.875 19.625 C6.85695313 20.79482422 6.83890625 21.96464844 6.8203125 23.16992188 C6.7732644 26.0516178 6.70753709 28.93163797 6.625 31.8125 C5.84125 31.4825 5.0575 31.1525 4.25 30.8125 C1.78167503 29.69383489 1.78167503 29.69383489 -0.375 29.8125 C-0.97570312 30.13476562 -1.57640625 30.45703125 -2.1953125 30.7890625 C-6.10172343 32.62325544 -10.15834891 32.35292522 -14.375 31.8125 C-19.1796547 29.41017265 -23.03131038 26.05974991 -25.125 21 C-25.84649633 14.68690709 -25.9870699 10.23060485 -22.375 4.8125 C-16.00574476 -1.62636458 -8.51478102 -2.99594147 0 0 Z M-15.375 8.8125 C-17.8665904 12.5498856 -17.83293285 14.38581583 -17.375 18.8125 C-15.96621904 21.8026643 -15.96621904 21.8026643 -13.375 23.8125 C-9.55318741 24.90444645 -7.48858241 25.4121213 -3.9375 23.5 C-2.14853066 21.95121247 -2.14853066 21.95121247 -2.375 19.8125 C-1.715 19.8125 -1.055 19.8125 -0.375 19.8125 C-0.29378076 18.20917209 -0.23570866 16.60465974 -0.1875 15 C-0.15269531 14.10667969 -0.11789062 13.21335937 -0.08203125 12.29296875 C-0.17137289 9.7844058 -0.17137289 9.7844058 -1.67578125 8.04296875 C-6.3782648 4.63772204 -11.06521066 5.36466853 -15.375 8.8125 Z " fill="#42B549" transform="translate(337.375,40.1875)"/>
<path d="M0 0 C4.19826665 3.19068266 6.46295531 6.38886593 8.125 11.375 C8.72720006 17.29663392 8.05784332 20.72919832 4.58984375 25.609375 C1.56663302 29.25335166 -0.90271164 31.05787606 -5.64453125 31.8203125 C-10.95745418 32.12772691 -14.98284342 31.88382515 -19.4375 28.8125 C-22.90304415 25.71516992 -24.73012259 22.95450963 -25.875 18.375 C-26.17718427 12.3313147 -25.2221616 7.49061511 -21.3125 2.78125 C-15.66632446 -2.74218259 -6.97633486 -3.58568609 0 0 Z M-14.875 7.375 C-17.29936574 11.36347267 -18.00917402 13.48050655 -17.3125 18.125 C-15.82159269 21.49574697 -15.17641038 22.81600065 -11.875 24.375 C-8.13405831 24.93216153 -6.38140398 24.65633554 -3.0625 22.8125 C-0.20914649 19.63304894 0.05073273 17.60823429 0.125 13.375 C-0.67440767 9.85760625 -1.40524192 8.72430729 -4.3125 6.5625 C-8.32755735 4.70186367 -11.11446944 5.21269493 -14.875 7.375 Z " fill="#42B549" transform="translate(180.875,40.625)"/>
<path d="M0 0 C3.83084349 2.61193874 6.65161815 5.67823629 8.75 9.875 C9.2738576 15.13075165 9.41505372 19.52026095 7.0625 24.3125 C3.76634339 27.96499787 0.44047167 31.60683207 -4.640625 32.11328125 C-12.29685167 32.31200845 -15.8064768 30.94625042 -21.5625 25.8125 C-24.94886862 21.92444714 -24.58305452 17.51004079 -24.53125 12.6015625 C-24.0046282 7.49625675 -21.35837353 4.87523953 -17.6875 1.5625 C-12.30660892 -2.16273229 -6.04005985 -2.09078995 0 0 Z M-14.25 7.875 C-16.93357039 11.90035558 -16.92535766 15.14749638 -16.25 19.875 C-14.13073593 23.26582252 -12.65151938 23.75819436 -8.8125 24.875 C-5.18582765 25.19164742 -5.18582765 25.19164742 -2.375 23.0625 C0.32080427 20.28740737 0.69562194 19.45140739 1.0625 15.5625 C0.69549371 11.23182574 -0.03222601 9.75406094 -3.25 6.875 C-7.53563392 5.50724449 -10.31471683 5.68873157 -14.25 7.875 Z " fill="#42B549" transform="translate(117.25,40.125)"/>
<path d="M0 0 C4.23301121 2.82200747 7.17159664 5.95228992 8.8125 10.875 C15.7425 11.37 15.7425 11.37 22.8125 11.875 C22.8125 25.735 22.8125 39.595 22.8125 53.875 C22.4825 53.875 22.1525 53.875 21.8125 53.875 C21.8125 41.005 21.8125 28.135 21.8125 14.875 C18.656875 14.99875 15.50125 15.1225 12.25 15.25 C10.7793811 15.30099854 10.7793811 15.30099854 9.27905273 15.35302734 C5.33464237 15.52979196 1.67925186 15.77409772 -2.109375 16.93359375 C-7.08443234 18.45515316 -11.24849065 17.10975234 -16.1875 15.875 C-22.7875 15.545 -29.3875 15.215 -36.1875 14.875 C-36.1875 32.695 -36.1875 50.515 -36.1875 68.875 C-37.1775 68.875 -38.1675 68.875 -39.1875 68.875 C-39.1875 50.065 -39.1875 31.255 -39.1875 11.875 C-33.9075 11.875 -28.6275 11.875 -23.1875 11.875 C-22.8575 10.225 -22.5275 8.575 -22.1875 6.875 C-20.4453125 4.890625 -20.4453125 4.890625 -18.3125 3.125 C-17.61382813 2.53203125 -16.91515625 1.9390625 -16.1953125 1.328125 C-11.29019991 -2.22187866 -5.47084869 -1.93088777 0 0 Z M-17.1875 9.875 C-17.1875 10.535 -17.1875 11.195 -17.1875 11.875 C-10.48057364 15.16519029 -5.33013524 15.24750977 1.8125 12.875 C2.1425 12.215 2.4725 11.555 2.8125 10.875 C0.05963716 6.36283222 0.05963716 6.36283222 -4.5703125 4.30078125 C-10.44814198 4.04636774 -13.60407683 4.85820756 -17.1875 9.875 Z " fill="#424342" transform="translate(39.1875,14.125)"/>
<path d="M0 0 C20 0 20 0 28 3 C29 4 29 4 29.09765625 6.50390625 C29.08605469 7.51324219 29.07445313 8.52257812 29.0625 9.5625 C29.05347656 10.57441406 29.04445313 11.58632813 29.03515625 12.62890625 C29.02355469 13.41136719 29.01195313 14.19382812 29 15 C28.45730469 14.57847656 27.91460938 14.15695313 27.35546875 13.72265625 C26.64003906 13.17480469 25.92460937 12.62695312 25.1875 12.0625 C24.12595703 11.24458984 24.12595703 11.24458984 23.04296875 10.41015625 C19.12401764 7.70510587 15.64936529 7.60598599 11 8 C7.08195073 10.10971884 4.33569866 12.21711053 2 16 C1.12858516 21.1970867 1.40533686 25.71918709 3.625 30.5 C6.25239411 33.26567801 8.49505909 34.53960795 12 36 C13.33333333 36.66666667 14.66666667 37.33333333 16 38 C14.6696875 38.928125 14.6696875 38.928125 13.3125 39.875 C9.06433262 43.35627731 7.16652882 48.06299848 5 53 C3.35 53 1.7 53 0 53 C0 35.51 0 18.02 0 0 Z " fill="#5FB854" transform="translate(3,29)"/>
<path d="M0 0 C3.7437925 1.66390778 5.82498424 3.56029812 8 7 C8.86120395 11.77153538 8.70334178 15.79427124 6.25 20 C2.29133207 23.51881594 -0.51121164 24.51908442 -5.96875 24.38671875 C-10.27457989 23.56695498 -12.84034656 20.5813456 -15.375 17.125 C-16.35485755 13.79348434 -16.47027275 11.46826157 -16 8 C-11.75637406 1.42628497 -7.93115471 -0.85412435 0 0 Z " fill="#F3F2F2" transform="translate(49,39)"/>
<path d="M0 0 C3.75212276 2.01502889 5.63644095 3.45466142 8 7 C8.60695266 11.20925614 8.43802698 14.93951362 6.8125 18.875 C3.55554811 22.69349532 1.11390034 23.83830479 -3.875 24.5625 C-8.22431982 24.41394638 -10.53711456 22.47942734 -13.65234375 19.60546875 C-16.57690904 16.1214214 -16.29895873 12.33490154 -16 8 C-12.9817146 1.01028645 -7.40502258 -1.33319389 0 0 Z " fill="#F2F2F2" transform="translate(22,39)"/>
<path d="M0 0 C0 2.31 0 4.62 0 7 C3.3 7 6.6 7 10 7 C10 9.64 10 12.28 10 15 C6.7 15.33 3.4 15.66 0 16 C0 21.28 0 26.56 0 32 C3.3 32 6.6 32 10 32 C10 34.64 10 37.28 10 40 C-0.75100043 40.68867618 -0.75100043 40.68867618 -4.625 38.125 C-7 36 -7 36 -8 34 C-8.23474404 29.59285849 -8.22838436 25.18193686 -8.24023438 20.76928711 C-8.24994768 18.57432267 -8.28097409 16.38029178 -8.3125 14.18554688 C-8.31902948 12.79167223 -8.32428017 11.39779089 -8.328125 10.00390625 C-8.3374707 8.73361572 -8.34681641 7.4633252 -8.35644531 6.15454102 C-8 3 -8 3 -6.64746094 1.07397461 C-4.38199902 -0.4028729 -2.64385992 -0.21436702 0 0 Z " fill="#46B64D" transform="translate(82,32)"/>
<path d="M0 0 C3.29064962 2.03040083 6.03840061 4.25853149 8.9375 6.8125 C9.185 6.214375 9.4325 5.61625 9.6875 5 C11.17215019 2.40186217 12.38086094 1.36568004 14.9375 -0.1875 C20.15642208 -0.994325 25.97720748 -1.32593083 30.5625 1.625 C33.19482049 4.04950572 34.84534416 5.64212087 35.1328125 9.29296875 C35.10960937 10.18628906 35.08640625 11.07960938 35.0625 12 C35.04445312 12.90105469 35.02640625 13.80210938 35.0078125 14.73046875 C34.98460937 15.41753906 34.96140625 16.10460937 34.9375 16.8125 C34.6075 16.8125 34.2775 16.8125 33.9375 16.8125 C33.69 15.595625 33.4425 14.37875 33.1875 13.125 C32.21140181 9.22060723 30.82703166 6.70203166 27.9375 3.8125 C24.20849684 2.56949895 20.80400786 2.1413326 16.9375 2.8125 C13.91358448 4.55157588 11.52001339 6.64747322 9.9375 9.8125 C9.86633618 12.18652501 9.85340915 14.56250677 9.875 16.9375 C9.88402344 18.21882813 9.89304687 19.50015625 9.90234375 20.8203125 C9.91394531 21.80773437 9.92554687 22.79515625 9.9375 23.8125 C9.33421875 24.00585938 8.7309375 24.19921875 8.109375 24.3984375 C7.31015625 24.65882812 6.5109375 24.91921875 5.6875 25.1875 C4.89859375 25.44273438 4.1096875 25.69796875 3.296875 25.9609375 C0.94291173 26.74252618 0.94291173 26.74252618 -1.0859375 27.91796875 C-4.71475711 29.56026063 -8.30822167 28.82752152 -12.0625 27.8125 C-15.86539612 25.65779353 -18.4289591 22.87071373 -20.0625 18.8125 C-20.78795222 14.25749712 -21.117977 9.74525658 -18.859375 5.609375 C-13.66355177 -0.63610948 -8.00142235 -3.10259234 0 0 Z M-16.875 7.0625 C-18.39357326 10.57919597 -18.46968483 13.01210827 -18.0625 16.8125 C-16.254379 20.90456332 -13.89904027 23.51057584 -10.0625 25.8125 C-5.14913491 26.43641938 -3.0897161 26.34513057 1.3125 24.0625 C4.34490352 21.46329698 5.66506275 19.58334213 6.2734375 15.62890625 C6.34274911 11.62962634 6.27861971 9.38509379 4.1875 5.875 C0.17347852 2.19548031 -2.52006011 1.39650736 -8.1015625 1.5625 C-12.18033569 2.08250296 -14.36269848 3.94378087 -16.875 7.0625 Z " fill="#424342" transform="translate(24.0625,37.1875)"/>
<path d="M0 0 C0.66 0 1.32 0 2 0 C2.09944869 5.81660061 2.1717413 11.63269792 2.21972656 17.44995117 C2.23974646 19.4256249 2.26697092 21.40124009 2.30175781 23.37670898 C2.35070207 26.2291515 2.37306525 29.08080549 2.390625 31.93359375 C2.41127014 32.80584091 2.43191528 33.67808807 2.45318604 34.57676697 C2.45565745 41.44965565 1.03958662 47.72080442 -3.75042725 52.88841248 C-8.3040988 57.06964045 -12.701902 59.26014827 -18.97387695 59.22705078 C-20.41480461 59.22682419 -20.41480461 59.22682419 -21.88484192 59.22659302 C-22.9089769 59.21627045 -23.93311188 59.20594788 -24.98828125 59.1953125 C-26.04661667 59.1924826 -27.10495209 59.18965271 -28.19535828 59.18673706 C-31.56785498 59.1755629 -34.94008387 59.15046307 -38.3125 59.125 C-40.6022097 59.11496664 -42.89192357 59.10584141 -45.18164062 59.09765625 C-50.78785143 59.0756326 -56.39390658 59.04218236 -62 59 C-62 58.34 -62 57.68 -62 57 C-59.27159817 56.09053272 -57.63333445 55.86708212 -54.82324219 55.84228516 C-53.98517029 55.83202301 -53.14709839 55.82176086 -52.28363037 55.81118774 C-51.3805011 55.80388641 -50.47737183 55.79658508 -49.546875 55.7890625 C-47.62889782 55.76098657 -45.71092919 55.73232206 -43.79296875 55.703125 C-40.77360337 55.66193177 -37.75439621 55.62503844 -34.73486328 55.59863281 C-31.81769969 55.57091856 -28.90125779 55.52504038 -25.984375 55.4765625 C-25.08934265 55.47330963 -24.1943103 55.47005676 -23.27215576 55.46670532 C-17.21876687 55.34881939 -12.06092347 54.62665057 -7.29296875 50.53515625 C-5.23902195 47.79897977 -3.33703418 45.16026262 -2 42 C-1.34 42 -0.68 42 0 42 C0 28.14 0 14.28 0 0 Z " fill="#656665" transform="translate(62,26)"/>
<path d="M0 0 C5.55183466 0.13879587 8.39161511 2.52993002 12.296875 6.14453125 C14.2507325 8.27316041 15.31766565 10.18537081 16 13 C10.6383969 16.33288841 7.13508578 17.12050537 0.8125 17.0625 C-0.45980469 17.05347656 -1.73210938 17.04445313 -3.04296875 17.03515625 C-4.50669922 17.01775391 -4.50669922 17.01775391 -6 17 C-6.64661639 13.64527735 -7.14010531 10.42180275 -7 7 C-4.6875 4.5625 -4.6875 4.5625 -2 3 C-1.34 2.01 -0.68 1.02 0 0 Z " fill="#5FB954" transform="translate(38,65)"/>
<path d="M0 0 C2.64 0 5.28 0 8 0 C8 10.89 8 21.78 8 33 C3 32 3 32 1.20581055 30.85229492 C-0.62391344 28.04158103 -0.33649736 25.68596478 -0.29296875 22.36328125 C-0.2784668 20.41518555 -0.2784668 20.41518555 -0.26367188 18.42773438 C-0.23860585 17.05598361 -0.21321101 15.68423882 -0.1875 14.3125 C-0.1724502 12.92905076 -0.1587623 11.54558599 -0.14648438 10.16210938 C-0.11107223 6.77434793 -0.06168054 3.38736861 0 0 Z " fill="#42B549" transform="translate(299,39)"/>
<path d="M0 0 C0.33 0 0.66 0 1 0 C1.9729032 3.90045738 2.83828041 7.4012795 0.90625 11.0859375 C-1.91712655 14.49991833 -4.56766876 17.09338679 -9 18 C-10.66708389 17.92547804 -12.3337453 17.84120033 -14 17.75 C-17.66119772 17.60752519 -17.66119772 17.60752519 -20.7578125 19.328125 C-22.30748151 21.1511996 -22.30748151 21.1511996 -24 24 C-27.94139078 22.33248852 -30.7892812 19.77289351 -34 17 C-31.22157405 14.22157405 -29.21633419 13.05528792 -25.25 12.875 C-24.5075 12.91625 -23.765 12.9575 -23 13 C-23 11.35 -23 9.7 -23 8 C-22.38125 8.6496875 -22.38125 8.6496875 -21.75 9.3125 C-18.68135784 12.2715478 -16.3262848 14.43896288 -11.9375 14.625 C-7.36495429 13.89919909 -5.28662826 13.28662826 -2 10 C-0.92515295 6.70311337 -0.38089982 3.44123287 0 0 Z " fill="#494D47" transform="translate(57,48)"/>
<path d="M0 0 C4.75 0.75 4.75 0.75 7 3 C7.67039106 9.9273743 7.67039106 9.9273743 5.4375 13.5 C2.02467068 15.60020266 -0.06688873 15.63210717 -4 15 C-7.1190035 12.28086874 -7.93764029 10.82626618 -8.25 6.6875 C-8.1675 5.800625 -8.085 4.91375 -8 4 C-5.03 4.495 -5.03 4.495 -2 5 C-1.34 3.35 -0.68 1.7 0 0 Z " fill="#444444" transform="translate(44,44)"/>
<path d="M0 0 C4.75 0.75 4.75 0.75 7 3 C7.67039106 9.9273743 7.67039106 9.9273743 5.4375 13.5 C2.02467068 15.60020266 -0.06688873 15.63210717 -4 15 C-7.1190035 12.28086874 -7.93764029 10.82626618 -8.25 6.6875 C-8.1675 5.800625 -8.085 4.91375 -8 4 C-5.03 4.495 -5.03 4.495 -2 5 C-1.34 3.35 -0.68 1.7 0 0 Z " fill="#444444" transform="translate(20,44)"/>
<path d="M0 0 C0.66 1.32 1.32 2.64 2 4 C2.99 3.34 3.98 2.68 5 2 C5.75 4.1875 5.75 4.1875 6 7 C3.87526689 10.38383422 1.86347842 12.8194927 -2 14 C-6.7322142 14.53428225 -9.61968249 14.73985708 -13.4375 11.75 C-17 7.92682927 -17 7.92682927 -17 5 C-16.34 4.01 -15.68 3.02 -15 2 C-14.525625 2.969375 -14.05125 3.93875 -13.5625 4.9375 C-12.29806053 7.80477437 -12.29806053 7.80477437 -11 9 C-7.33655389 9.13568319 -4.49384279 9.16461426 -1 8 C-0.67 5.36 -0.34 2.72 0 0 Z " fill="#E4E3E3" transform="translate(51,49)"/>
<path d="M0 0 C-0.33 0.99 -0.66 1.98 -1 3 C-2.7421875 3.6953125 -2.7421875 3.6953125 -4.875 4.125 C-7.343396 4.64418292 -9.59497667 5.19832556 -12 6 C-14.21852079 9.96998457 -14.4001932 13.51783613 -14 18 C-12.33776508 21.65691682 -10.4968634 24.00179234 -7 26 C-3.84881675 26.72045367 -3.84881675 26.72045367 -1 27 C-0.67 27.99 -0.34 28.98 0 30 C-6.7039198 29.8361264 -10.31931425 28.90901189 -15 24 C-17.88035914 19.31567891 -17.87238744 14.32457159 -17 9 C-13.06305473 1.79078852 -7.98851458 -0.30725056 0 0 Z " fill="#4C554B" transform="translate(21,36)"/>
<path d="M0 0 C0.33 0 0.66 0 1 0 C1 1.65 1 3.3 1 5 C1.66 5.33 2.32 5.66 3 6 C0.93145393 10.02822129 -0.78714098 12.2212373 -5 14 C-11.5412844 14.94954128 -11.5412844 14.94954128 -15.0703125 12.65234375 C-16.8027847 11.16887059 -18.4275792 9.65104184 -20 8 C-19.67 6.35 -19.34 4.7 -19 3 C-14.30985915 4.52112676 -14.30985915 4.52112676 -12.625 7.125 C-11.02832873 9.40579622 -11.02832873 9.40579622 -7.5 9.3125 C-4.03064208 9.13832877 -4.03064208 9.13832877 -1 8 C-0.67 5.36 -0.34 2.72 0 0 Z " fill="#D9D8D8" transform="translate(27,49)"/>
<path d="M0 0 C2.6875 0.875 2.6875 0.875 5 2 C5.125 4.375 5.125 4.375 5 7 C3 9 3 9 0.5 9.3125 C-0.7375 9.1578125 -0.7375 9.1578125 -2 9 C-4 6 -4 6 -3.8125 3.9375 C-3 2 -3 2 0 0 Z " fill="#42B549" transform="translate(302,29)"/>
<path d="M0 0 C3.625 0.375 3.625 0.375 7 1 C7 5 7 5 5.75 6.8125 C4 8 4 8 1.9375 8 C0 7 0 7 -1.25 4.4375 C-1.4975 3.633125 -1.745 2.82875 -2 2 C-1.34 1.34 -0.68 0.68 0 0 Z " fill="#E9BF69" transform="translate(29,61)"/>
<path d="M0 0 C5.01113235 1.4317521 6.94469549 3.98445693 10 8 C8.02 8.66 6.04 9.32 4 10 C1.4375 7.8125 1.4375 7.8125 -1 5 C-0.8125 2.1875 -0.8125 2.1875 0 0 Z " fill="#E4E3E3" transform="translate(8,52)"/>
<path d="M0 0 C-0.33 0.99 -0.66 1.98 -1 3 C-2.7421875 3.6953125 -2.7421875 3.6953125 -4.875 4.125 C-7.343396 4.64418292 -9.59497667 5.19832556 -12 6 C-13.21869929 8.50447516 -13.21869929 8.50447516 -14 11 C-14.99 11 -15.98 11 -17 11 C-15.56314642 5.97101246 -13.05763331 4.04322498 -9 1 C-6.04335481 -0.4783226 -3.25770263 -0.06032783 0 0 Z " fill="#4D564C" transform="translate(21,36)"/>
<path d="M0 0 C0.33 0 0.66 0 1 0 C1 1.65 1 3.3 1 5 C0.06027344 5.30744141 0.06027344 5.30744141 -0.8984375 5.62109375 C-1.71570312 5.89050781 -2.53296875 6.15992188 -3.375 6.4375 C-4.18710937 6.70433594 -4.99921875 6.97117187 -5.8359375 7.24609375 C-8.01031799 7.95179729 -8.01031799 7.95179729 -10 9 C-12.3329866 9.04022391 -14.66706666 9.04320247 -17 9 C-16.42507812 8.72285156 -15.85015625 8.44570312 -15.2578125 8.16015625 C-13.04479811 7.0230191 -10.97283971 5.77357662 -8.875 4.4375 C-6.93458437 3.20368855 -5.05695975 2.02847987 -3 1 C-3 1.99 -3 2.98 -3 4 C-2.01 4 -1.02 4 0 4 C0 2.68 0 1.36 0 0 Z " fill="#413F41" transform="translate(33,56)"/>
<path d="M0 0 C0.33 0 0.66 0 1 0 C2.87443946 7.51479821 2.87443946 7.51479821 0.73046875 11.15625 C-0.7739001 12.87552869 -2.30375551 14.47092164 -4 16 C-5.32 15.34 -6.64 14.68 -8 14 C-7.05125 13.54625 -6.1025 13.0925 -5.125 12.625 C-2.74805592 11.08895595 -2.07831795 10.23132801 -1.15625 7.5078125 C-0.67457435 5.00734921 -0.28010122 2.53056963 0 0 Z " fill="#515151" transform="translate(57,48)"/>
<path d="M0 0 C0.33 0 0.66 0 1 0 C1.66 3.96 2.32 7.92 3 12 C2.01 12 1.02 12 0 12 C-1.1898306 9.6203388 -1.13349966 8.08514265 -1.125 5.4375 C-1.12886719 4.22900391 -1.12886719 4.22900391 -1.1328125 2.99609375 C-1 1 -1 1 0 0 Z " fill="#434243" transform="translate(5,46)"/>
<path d="M0 0 C0.33 0 0.66 0 1 0 C1.33 1.98 1.66 3.96 2 6 C2.66 6 3.32 6 4 6 C3.67 7.98 3.34 9.96 3 12 C2.01 12 1.02 12 0 12 C-1.16063604 7.74433453 -0.76173392 4.3164922 0 0 Z " fill="#546153" transform="translate(30,48)"/>
<path d="M0 0 C1.32 0 2.64 0 4 0 C4 2.31 4 4.62 4 7 C3.01 6.67 2.02 6.34 1 6 C-0.1875 3.4375 -0.1875 3.4375 -1 1 C-0.67 0.67 -0.34 0.34 0 0 Z " fill="#F5EFA8" transform="translate(28,62)"/>
<path d="M0 0 C0.66 1.32 1.32 2.64 2 4 C2.99 3.34 3.98 2.68 5 2 C5.33 3.65 5.66 5.3 6 7 C4.68 7 3.36 7 2 7 C1.01 7.33 0.02 7.66 -1 8 C-0.67 5.36 -0.34 2.72 0 0 Z M-3 8 C-1 9 -1 9 -1 9 Z " fill="#CFCFCF" transform="translate(51,49)"/>
<path d="M0 0 C2 1.375 2 1.375 4 4 C4.35791096 7.3580469 4.23115823 10.63536357 4 14 C3.67 14 3.34 14 3 14 C1.79534844 9.34201396 0.71452588 4.76350585 0 0 Z " fill="#40423F" transform="translate(55,40)"/>
<path d="M0 0 C0.8125 2.125 0.8125 2.125 1 4 C0.13375 3.525625 -0.7325 3.05125 -1.625 2.5625 C-4.85387374 1.06765105 -7.49033826 0.41781687 -11 0 C-11 -0.33 -11 -0.66 -11 -1 C-6.68066349 -2.00449686 -3.88779613 -2.33267768 0 0 Z " fill="#4E4F4E" transform="translate(54,39)"/>
<path d="M0 0 C1.65 0 3.3 0 5 0 C5 0.99 5 1.98 5 3 C5.66 3.33 6.32 3.66 7 4 C4.36 4 1.72 4 -1 4 C-0.67 2.68 -0.34 1.36 0 0 Z " fill="#DDDCDC" transform="translate(42,59)"/>
<path d="M0 0 C2.97 0 5.94 0 9 0 C9.66 1.32 10.32 2.64 11 4 C7.37 3.01 3.74 2.02 0 1 C0 0.67 0 0.34 0 0 Z " fill="#464547" transform="translate(15,37)"/>
</svg>
