<?xml version="1.0" encoding="UTF-8"?>
<svg version="1.1" xmlns="http://www.w3.org/2000/svg" width="345" height="100">
<path d="M0 0 C0 4.95 0 9.9 0 15 C1.11117187 14.57847656 2.22234375 14.15695313 3.3671875 13.72265625 C11.29370193 10.78083871 18.45960946 8.27112351 27 8 C25.51330148 11.44042276 23.53310132 13.69242086 20.9375 16.375 C17.19276769 20.47289406 13.93390068 24.69467219 10.875 29.3125 C10.47273193 29.8988623 10.07046387 30.48522461 9.65600586 31.08935547 C7.94900069 33.74200593 6.99121068 35.52943359 7.05078125 38.71875 C8.12421105 41.29851544 9.14023945 42.45248247 11.3125 44.1875 C11.90675781 44.67605469 12.50101562 45.16460937 13.11328125 45.66796875 C15.00567333 47.00400539 16.90285914 48.02318605 19 49 C18.67 49.99 18.34 50.98 18 52 C17.33097656 51.72027344 16.66195312 51.44054688 15.97265625 51.15234375 C12.50412108 49.80777361 8.98712109 48.66875967 5.4375 47.5625 C4.38502075 47.23100952 4.38502075 47.23100952 3.3112793 46.89282227 C-0.99077359 45.55793854 -5.2910848 44.43023892 -9.6875 43.4375 C-15.10111207 42.13354473 -18.13741172 40.19519332 -21.75 35.9375 C-25.08400828 33.06654843 -28.81767454 32.18592786 -33 31 C-34.05960937 30.68869141 -34.05960937 30.68869141 -35.140625 30.37109375 C-36.75677818 29.90135817 -38.37787336 29.44867333 -40 29 C-40 28.67 -40 28.34 -40 28 C-36.38085514 27.9261399 -33.0192585 27.99695918 -29.4375 28.5625 C-26.05323382 29.16985343 -26.05323382 29.16985343 -22.9375 28.4375 C-19.4106945 27.9122311 -17.26765114 28.6773793 -14 30 C-14.144375 28.72125 -14.28875 27.4425 -14.4375 26.125 C-14.51871094 25.30386719 -14.59992188 24.48273437 -14.68359375 23.63671875 C-14.96045525 21.00309251 -14.96045525 21.00309251 -15.53515625 18.45703125 C-16.23448966 14.66652665 -16.63719397 12.14268827 -14.71484375 8.6953125 C-10.77518857 3.96772628 -6.43699861 0 0 0 Z " fill="#188FCA" transform="translate(314,9)"/>
<path d="M0 0 C5.02406668 4.77286335 6.90767668 8.63375262 7.51953125 15.421875 C7.5 17.375 7.5 17.375 6.5 19.375 C-2.08 19.375 -10.66 19.375 -19.5 19.375 C-16.57350077 26.94124642 -16.57350077 26.94124642 -13.421875 28.69921875 C-7.45170205 29.69782682 -4.01843995 28.84878342 1.5 26.375 C2.49 26.375 3.48 26.375 4.5 26.375 C5.16 28.355 5.82 30.335 6.5 32.375 C-0.39482332 36.40782119 -5.39424009 38.22887085 -13.5 37.375 C-19.41145165 35.58520063 -23.06937564 32.42003582 -26.5 27.375 C-29.24183663 21.36907215 -29.33364067 15.83423996 -27.25 9.6875 C-21.59585801 -1.01498305 -11.44307559 -5.31285652 0 0 Z M-15.5 6.375 C-18.23215678 8.99790074 -18.23215678 8.99790074 -19.5 12.375 C-13.56 12.375 -7.62 12.375 -1.5 12.375 C-2.16 10.395 -2.82 8.415 -3.5 6.375 C-8.06989268 4.30561463 -11.15986178 3.67707624 -15.5 6.375 Z " fill="#3A3A3A" transform="translate(152.5,46.625)"/>
<path d="M0 0 C4.8852327 3.5417937 8.43974793 7.06548106 10.5 12.8125 C11.31001834 18.69007208 10.8552456 23.78423448 7.91015625 28.98828125 C4.31033893 33.64510864 -0.71463559 37.32630641 -6.62890625 38.0859375 C-13.57593326 38.37586158 -18.84441589 36.94388414 -24.5 32.8125 C-28.48647987 28.60658088 -30.30732362 23.86725933 -30.625 18.109375 C-30.35318383 13.11475283 -29.24625332 8.78176881 -25.87890625 4.984375 C-18.29027723 -1.73931351 -9.805334 -3.32680975 0 0 Z M-19.5 9.8125 C-21.87965342 12.84114981 -21.85961865 16.06001112 -21.75390625 19.8515625 C-21.25865823 23.67640104 -19.38771296 25.95539783 -16.6875 28.5625 C-13.81849321 30.20193245 -11.81525059 30.68249017 -8.5 30.8125 C-4.95928037 29.67226825 -2.35408499 28.60964599 0.375 26.0625 C1.96886041 22.87477919 2.37904353 20.38071585 2.5 16.8125 C1.17816654 12.84699963 -0.08420389 9.37434709 -3.5 6.8125 C-9.96635136 4.65704955 -14.27749848 5.44017315 -19.5 9.8125 Z " fill="#3C3C3C" transform="translate(210.5,46.1875)"/>
<path d="M0 0 C2.75080792 2.23631766 4.54930832 4.75382793 5.81640625 8.0234375 C6.04345703 11.13964844 6.04345703 11.13964844 6.01171875 14.7578125 C6.00527344 16.05332031 5.99882812 17.34882812 5.9921875 18.68359375 C5.97547818 20.04687769 5.95854831 21.41015894 5.94140625 22.7734375 C5.93136965 24.15233735 5.92224498 25.53124415 5.9140625 26.91015625 C5.89048718 30.28142632 5.85757895 33.65234386 5.81640625 37.0234375 C3.17640625 37.0234375 0.53640625 37.0234375 -2.18359375 37.0234375 C-2.51359375 36.3634375 -2.84359375 35.7034375 -3.18359375 35.0234375 C-3.82296875 35.5184375 -4.46234375 36.0134375 -5.12109375 36.5234375 C-9.24832451 38.54493828 -12.66423741 38.74079565 -17.18359375 38.0234375 C-21.57702665 35.82672105 -24.23744227 33.56445761 -26.18359375 29.0234375 C-26.76307363 25.13264403 -26.3555706 23.3607767 -24.55859375 19.8359375 C-20.9127612 15.51850422 -16.74352939 13.66994164 -11.18359375 13.0234375 C-8.18140952 12.9524399 -5.18586407 12.96456945 -2.18359375 13.0234375 C-3.30213961 9.29729597 -3.30213961 9.29729597 -6.18359375 7.0234375 C-12.48096386 6.68649829 -12.48096386 6.68649829 -18.18359375 9.0234375 C-19.17359375 9.0234375 -20.16359375 9.0234375 -21.18359375 9.0234375 C-21.84359375 7.0434375 -22.50359375 5.0634375 -23.18359375 3.0234375 C-17.02908512 -1.85772452 -7.35765831 -3.29054486 0 0 Z M-17.18359375 23.0234375 C-17.85039743 26.06623122 -17.85039743 26.06623122 -17.18359375 29.0234375 C-13.66534864 31.36893424 -12.32583681 31.60335153 -8.18359375 31.0234375 C-4.77066431 28.4447797 -3.39569156 26.88814396 -2.37109375 22.7109375 C-2.27828125 21.380625 -2.27828125 21.380625 -2.18359375 20.0234375 C-10.3362356 19.31892617 -10.3362356 19.31892617 -17.18359375 23.0234375 Z " fill="#3D3D3D" transform="translate(286.18359375,45.9765625)"/>
<path d="M0 0 C4.20406751 2.12557653 6.51442373 4.54327118 8 9 C8.08358958 11.21089945 8.10731764 13.42426078 8.09765625 15.63671875 C8.09443359 16.93544922 8.09121094 18.23417969 8.08789062 19.57226562 C8.07953531 20.94401108 8.07107037 22.31575587 8.0625 23.6875 C8.05748335 25.07096195 8.05292073 26.45442563 8.04882812 27.83789062 C8.03702529 31.22530395 8.02056019 34.61263033 8 38 C5.36 38 2.72 38 0 38 C-0.33 37.34 -0.66 36.68 -1 36 C-1.639375 36.495 -2.27875 36.99 -2.9375 37.5 C-7.06473076 39.52150078 -10.48064366 39.71735815 -15 39 C-19.34961589 36.82519205 -22.22789841 34.58661587 -24 30 C-24 25.23356309 -23.75613523 23.06331516 -21 19.1875 C-14.40085578 14.375624 -8.00203329 13.6189508 0 14 C-0.99 12.02 -1.98 10.04 -3 8 C-4.41623216 7.94552953 -5.83308191 7.90699492 -7.25 7.875 C-8.43335937 7.84019531 -8.43335937 7.84019531 -9.640625 7.8046875 C-12.22666272 8.01876347 -13.72648236 8.80687297 -16 10 C-16.99 10 -17.98 10 -19 10 C-19.66 8.02 -20.32 6.04 -21 4 C-14.68999615 -1.00448581 -7.82003667 -0.9500157 0 0 Z M-15 24 C-15.66680368 27.04279372 -15.66680368 27.04279372 -15 30 C-11.48175489 32.34549674 -10.14224306 32.57991403 -6 32 C-2.58707056 29.4213422 -1.21209781 27.86470646 -0.1875 23.6875 C-0.0946875 22.3571875 -0.0946875 22.3571875 0 21 C-8.15264185 20.29548867 -8.15264185 20.29548867 -15 24 Z " fill="#3B3B3B" transform="translate(76,45)"/>
<path d="M0 0 C2.64 0 5.28 0 8 0 C8 9.24 8 18.48 8 28 C13.88410378 25.05794811 14.71457476 24.47570873 17.8125 19.3125 C21.28774898 14.20381678 21.28774898 14.20381678 24.51171875 13.28125 C26.77224372 13.30963964 28.79915926 13.49564066 31 14 C29.55049595 18.35647645 27.32252888 21.31757289 24.375 24.8125 C23.14910156 26.27623047 23.14910156 26.27623047 21.8984375 27.76953125 C21.27195313 28.50558594 20.64546875 29.24164063 20 30 C21.60841083 34.7790138 24.28113962 38.58102934 27.125 42.6875 C32 49.73140496 32 49.73140496 32 52 C28.81172143 52.6506691 26.16712341 52.82708318 23 52 C20.0398192 49.0398192 18.06265871 45.62315182 16 42 C13.22082927 37.10352134 13.22082927 37.10352134 8 35 C8 40.61 8 46.22 8 52 C5.36 52 2.72 52 0 52 C0 34.84 0 17.68 0 0 Z " fill="#3C3C3C" transform="translate(227,31)"/>
<path d="M0 0 C2.97 0 5.94 0 9 0 C11.97 8.25 14.94 16.5 18 25 C22.00942219 15.40934201 22.00942219 15.40934201 25.8125 5.75 C26.23144531 4.65171875 26.65039062 3.5534375 27.08203125 2.421875 C27.53642578 1.22304688 27.53642578 1.22304688 28 0 C30.97 0 33.94 0 37 0 C32.6100288 12.78295566 27.99095164 25.43918553 23 38 C19.7 38 16.4 38 13 38 C11.14234222 33.07272236 9.29110552 28.14309893 7.44580078 23.21118164 C6.8170316 21.5334359 6.18650698 19.85634697 5.55419922 18.17993164 C4.64609833 15.77139719 3.74431853 13.36057805 2.84375 10.94921875 C2.55939087 10.19912033 2.27503174 9.44902191 1.98205566 8.67619324 C0.85778022 5.65027662 0 3.25571279 0 0 Z " fill="#393939" transform="translate(87,45)"/>
<path d="M0 0 C2.64 0 5.28 0 8 0 C8 3.63 8 7.26 8 11 C10.97 11 13.94 11 17 11 C17 13.31 17 15.62 17 18 C14.03 18 11.06 18 8 18 C8.08684744 21.10554454 8.19370554 24.20815428 8.3125 27.3125 C8.33505859 28.19357422 8.35761719 29.07464844 8.38085938 29.98242188 C8.41630859 30.82998047 8.45175781 31.67753906 8.48828125 32.55078125 C8.51446533 33.33106689 8.54064941 34.11135254 8.56762695 34.9152832 C9.1062575 37.51232794 9.90362177 38.40952766 12 40 C15.10839021 40.7269226 15.10839021 40.7269226 18 41 C18 43.31 18 45.62 18 48 C12.92918782 48.36076925 9.12397641 48.5619882 4.5 46.25 C1.4579991 43.51219919 0.14971079 41.63104269 -0.22705078 37.52636719 C-0.21657715 36.62563477 -0.20610352 35.72490234 -0.1953125 34.796875 C-0.18564453 33.32734375 -0.18564453 33.32734375 -0.17578125 31.828125 C-0.15902344 30.81234375 -0.14226563 29.7965625 -0.125 28.75 C-0.11597656 27.71875 -0.10695313 26.6875 -0.09765625 25.625 C-0.07412011 23.08309713 -0.04124023 20.5416672 0 18 C-1.65 18 -3.3 18 -5 18 C-5 15.69 -5 13.38 -5 11 C-3.35 11 -1.7 11 0 11 C0 7.37 0 3.74 0 0 Z " fill="#404040" transform="translate(7,35)"/>
<path d="M0 0 C2.64 0 5.28 0 8 0 C8.33 14.19 8.66 28.38 9 43 C10.32 43.66 11.64 44.32 13 45 C13 47.31 13 49.62 13 52 C5.63803681 52.49079755 5.63803681 52.49079755 2.5625 50.125 C0.27672864 47.01635094 -0.12391848 45.35416455 -0.11352539 41.55029297 C-0.11344986 40.62948944 -0.11337433 39.70868591 -0.11329651 38.75997925 C-0.10813522 37.76410797 -0.10297394 36.76823669 -0.09765625 35.7421875 C-0.0962413 34.72399933 -0.09482635 33.70581116 -0.09336853 32.6567688 C-0.087759 29.39614965 -0.07520488 26.13559849 -0.0625 22.875 C-0.05748623 20.66796974 -0.05292311 18.46093841 -0.04882812 16.25390625 C-0.03778648 10.83591419 -0.02103905 5.41796195 0 0 Z " fill="#3E3E3E" transform="translate(165,31)"/>
<path d="M0 0 C2.64 0 5.28 0 8 0 C8.33 1.32 8.66 2.64 9 4 C10.299375 3.01 10.299375 3.01 11.625 2 C15.21423463 -0.12695385 16.92694798 -0.38790972 21 0 C21 2.64 21 5.28 21 8 C20.07767578 8.22042969 20.07767578 8.22042969 19.13671875 8.4453125 C18.32847656 8.66960938 17.52023438 8.89390625 16.6875 9.125 C15.88699219 9.33382812 15.08648437 9.54265625 14.26171875 9.7578125 C10.87696019 11.61679907 10.27667065 13.36148865 9 17 C8.52365306 20.62282912 8.39906614 24.22438219 8.3125 27.875 C8.27833984 28.84953125 8.24417969 29.8240625 8.20898438 30.828125 C8.12695707 33.21863491 8.05766152 35.60879905 8 38 C5.36 38 2.72 38 0 38 C0 25.46 0 12.92 0 0 Z " fill="#393939" transform="translate(30,45)"/>
<path d="M0 0 C-1.48669852 3.44042276 -3.46689868 5.69242086 -6.0625 8.375 C-11.60350966 14.39120952 -15.73373282 21.06393348 -20 28 C-20.66 28.99 -21.32 29.98 -22 31 C-22.99859167 28.27568679 -23.99226113 25.54982906 -24.9765625 22.8203125 C-25.71360774 20.78921836 -26.47435767 18.76667005 -27.25 16.75 C-28.15691404 13.42464854 -28.13720766 10.43019152 -28 7 C-25.86093479 6.28697826 -23.7217698 5.57428099 -21.58203125 4.86328125 C-19.9106444 4.30446658 -18.24121728 3.73974119 -16.57421875 3.16796875 C-10.9602602 1.25261819 -5.99032808 -0.17115223 0 0 Z " fill="#1591B2" transform="translate(341,17)"/>
<path d="M0 0 C0 5.61 0 11.22 0 17 C0.99 17 1.98 17 3 17 C2.34 19.31 1.68 21.62 1 24 C-3.73375714 18.42528887 -6.2649512 9.98368642 -6.25 2.6875 C-6.1675 1.800625 -6.085 0.91375 -6 0 C-2.25 -1.125 -2.25 -1.125 0 0 Z " fill="#0A779C" transform="translate(319,24)"/>
<path d="M0 0 C-0.33 0.99 -0.66 1.98 -1 3 C-3.9719385 1.87548273 -6.33440687 0.77706209 -9 -1 C-5.23375329 -2.25541557 -3.62811066 -1.37061958 0 0 Z " fill="#0C4866" transform="translate(333,58)"/>
<path d="M0 0 C2.475 0.99 2.475 0.99 5 2 C5 2.66 5 3.32 5 4 C2.36 3.67 -0.28 3.34 -3 3 C-2.01 2.01 -1.02 1.02 0 0 Z " fill="#157CB0" transform="translate(322,53)"/>
<path d="M0 0 C-0.66 1.32 -1.32 2.64 -2 4 C-2.33 3.34 -2.66 2.68 -3 2 C-5.31 2 -7.62 2 -10 2 C-10 1.67 -10 1.34 -10 1 C-6.59437148 0.22157062 -3.49234244 -0.09978121 0 0 Z " fill="#236475" transform="translate(341,17)"/>
</svg>
